<?xml version="1.0" standalone="no"?>
<!DOCTYPE svg PUBLIC "-//W3C//DTD SVG 1.1//EN" "http://www.w3.org/Graphics/SVG/1.1/DTD/svg11.dtd" >
<svg xmlns="http://www.w3.org/2000/svg" xmlns:xlink="http://www.w3.org/1999/xlink" version="1.1">
<metadata></metadata>
<defs>
<font id="tolkiencyrregular" horiz-adv-x="1120" >
<font-face units-per-em="2048" ascent="1638" descent="-410" />
<missing-glyph horiz-adv-x="594" />
<glyph horiz-adv-x="0" />
<glyph horiz-adv-x="0" />
<glyph unicode=" "  horiz-adv-x="594" />
<glyph unicode="&#x09;" horiz-adv-x="594" />
<glyph unicode="&#xa0;" horiz-adv-x="594" />
<glyph unicode="!" horiz-adv-x="418" d="M0 1352q79 14 215 86q31 16 123 72q-12 -38 -22 -86q-24 -110 -25 -158v-812q1 -52 31 -94h-191q33 40 31 94q-6 165 -14 361q-16 358 -23 371q0 56 -39 98q-20 22 -86 68zM114 92q0 46 34 82q36 35 82 35t80 -34.5t34 -80.5q0 -48 -37 -81t-86 -33q-47 0 -77 34 q-30 32 -30 78z" />
<glyph unicode="&#x22;" horiz-adv-x="463" d="M84 1512q0 38 49 38t49 -38v-4l-18 -138q-6 -41 -8 -50q-8 -38 -21 -40q-21 34 -29 84zM272 1512q0 15 18 27q16 11 32 11q50 0 50 -38v-4l-20 -138q-12 -86 -30 -90q-14 43 -27 86z" />
<glyph unicode="#" horiz-adv-x="1020" d="M8 586l108 59h144l86 172h-227l111 61h147l45 88l114 62l-82 -150h234l45 88l117 66l-78 -154h199l-109 -61h-118l-88 -174h222l-114 -57h-138l-40 -80l-132 -94l86 174h-226l-62 -117l-112 -61l90 178h-222zM340 643h232l86 174h-232z" />
<glyph unicode="$" horiz-adv-x="1196" d="M68 1057q0 167 118 283q141 138 402 138q-27 84 -125 208h203v-208q94 -10 158 -20q180 -32 298 -82q-28 -68 -36 -92q-38 -100 -38 -144q-72 154 -235 238q-47 26 -147 56v-631q158 -34 229 -68q229 -109 229 -317q0 -172 -168 -299q-146 -111 -290 -111v-108 q0 -86 20 -142h-118q20 68 20 142v98q-20 -4 -43 -4q-180 0 -381 84q22 46 34 80q36 92 36 147q0 20 -2 29q51 -150 155 -220q64 -42 201 -56v618q-30 0 -134 32q-155 48 -251 120q-135 99 -135 229zM178 1168q0 -173 205 -277q63 -32 205 -70v615q-170 0 -279 -70 q-131 -84 -131 -198zM666 58q108 18 164 44q166 80 166 254q0 90 -70 168q-90 102 -260 130v-596z" />
<glyph unicode="%" horiz-adv-x="1501" d="M74 1159q0 146 95 248q99 105 243 105q154 0 253 -99.5t99 -253.5q0 -156 -99 -250q-95 -92 -253 -92q-150 0 -244 96t-94 246zM180 0l58 70l776 1096q96 136 96 268q0 20 -4 40h204l-974 -1398q-14 -19 -20 -35l-19 -41h-117zM192 1151q0 -112 57 -202q66 -105 171 -105 q114 0 176 106q51 88 51 209q-1 123 -51 209q-61 104 -176 104q-118 0 -178 -106q-50 -87 -50 -215zM738 309q0 147 94 249q97 106 243 106q154 0 253.5 -100t99.5 -255q0 -151 -94 -248q-96 -98 -246 -98q-151 0 -250.5 97.5t-99.5 248.5zM848 332q0 -114 60 -216 q70 -120 176 -120q116 0 176 104q48 84 48 209q0 124 -49 210q-59 105 -175 105q-90 0 -160 -77q-76 -85 -76 -215z" />
<glyph unicode="&#x26;" horiz-adv-x="2187" d="M88 500q0 202 236 378q170 126 302 158q-184 78 -184 234q0 102 80 162q72 54 178 55q110 -1 181 -53q79 -59 79 -164q0 -66 -44 -127q-52 -71 -142 -107q107 -28 168 -57q190 -95 303 -281q31 132 165 236q80 62 257 146l-71 -208q-140 -33 -176 -59q-64 -47 -128 -201 l39 -92q83 -202 219 -330q148 -140 332 -139q60 1 142 31q94 34 116 80q-32 -84 -168 -130q-108 -38 -219 -38q-143 0 -213 36q-128 66 -320 312q-138 -372 -501 -372q-258 0 -435 133q-196 149 -196 397zM286 500q0 -197 116 -333q122 -143 317 -143q140 0 262 105 q131 111 191 303q-36 162 -103 266q-123 194 -369 298q-94 0 -244 -154q-170 -174 -170 -342zM572 1270q0 -62 16 -92q24 -45 112 -105q44 29 64 49q66 68 66 148q0 72 -28 120q-34 60 -102 60q-50 0 -86 -43q-42 -50 -42 -137z" />
<glyph unicode="'" horiz-adv-x="272" d="M84 1512q0 38 49 38t49 -38v-4l-18 -138q-6 -41 -8 -50q-8 -38 -21 -40q-21 34 -29 84z" />
<glyph unicode="(" horiz-adv-x="409" d="M70 570q0 404 67 646q77 274 259 430q-200 -387 -200 -954q0 -398 174 -798l-134 -113q-166 291 -166 789z" />
<glyph unicode=")" horiz-adv-x="409" d="M14 -219q198 384 199 952q0 396 -174 799l135 112q94 -188 132 -385q30 -164 30 -407q0 -406 -66 -639q-74 -259 -256 -432z" />
<glyph unicode="*" horiz-adv-x="743" d="M60 1190q40 32 61 125q3 13 16 88l193 -135l-60 229q53 -31 111 -31q59 0 105 31l-66 -233l200 137q-4 -20 -4 -31q0 -46 33 -114q11 -24 35 -62l-225 -26l172 -146q-12 2 -25 2q-46 0 -88 -28q-56 -38 -68 -97l-82 205l-92 -205q-8 51 -86 97q-18 10 -80 36l170 140z " />
<glyph unicode="+" d="M41 676v120h459v460h114v-458h459v-122h-459v-457h-114v457h-459z" />
<glyph unicode="," horiz-adv-x="332" d="M51 125q0 39 27.5 66.5t67.5 27.5q56 0 89 -36.5t33 -92.5q0 -78 -53 -172q-63 -110 -155 -156q66 54 65 130q1 43 -29 109q-36 81 -43 107q-2 8 -2 17z" />
<glyph unicode="-" horiz-adv-x="696" d="M45 406l82 141h525l-82 -141h-525z" />
<glyph unicode="." horiz-adv-x="346" d="M60 92q0 48 32 81.5t80 33.5q50 0 82 -32.5t32 -82.5q0 -49 -31.5 -80.5t-80.5 -31.5q-48 0 -81 32t-33 80z" />
<glyph unicode="/" horiz-adv-x="1118" d="M0 -148l108 162l738 1274q84 145 84 258q0 39 -10 68q0 5 -6 12h204l-926 -1610q-49 -86 -73 -164h-119z" />
<glyph unicode="0" d="M60 684q0 266 110 472q136 254 379 253q244 0 383 -211q129 -196 129 -506q1 -272 -111 -476q-137 -250 -389 -249q-259 0 -393 242q-108 196 -108 475zM228 684q0 -328 106 -504q92 -152 227 -152t227 160q104 182 105 500q-1 318 -107 500q-94 160 -225 160 q-134 0 -227 -160q-106 -182 -106 -504z" />
<glyph unicode="1" d="M336 1243l104 80q102 78 134 78h4q54 -9 53 -95v-1124q1 -110 37 -182h-234q39 68 39 182v1026q0 42 -86 42q-22 0 -51 -7z" />
<glyph unicode="2" d="M-2 0q10 0 200 166q240 210 378 387q202 263 202 451q0 130 -105 251q-108 125 -237 125q-68 0 -112 -52q-42 -50 -42 -120q0 -34 38 -78q10 -12 38 -38q-76 24 -170 24q-54 0 -108 -10q-8 0 -20 -4q60 160 217 240q138 70 323 71q149 0 237.5 -89.5t88.5 -237.5 q0 -194 -180 -445q-130 -181 -336 -369q-168 -154 -182 -153h491q95 0 197 47q36 17 80 47q-54 -83 -99 -203q-19 -48 -33 -96q-53 30 -86 43q-112 43 -246 43h-534z" />
<glyph unicode="3" horiz-adv-x="1124" d="M4 140q222 42 264 94q-2 -8 -2 -15v-14q0 -79 54 -134t132 -55q140 0 236 94q106 104 106 279q0 173 -108 288t-280 130q118 29 180 61q180 92 180 242q0 124 -129 203q-109 67 -237 67q-60 0 -97 -42q-31 -34 -31 -84q0 -6 2 -21q10 -74 72 -117q-68 34 -206 52 q-46 6 -128 12q164 238 492 237q182 0 299 -57q151 -74 151 -217q0 -113 -120 -202q-90 -65 -224 -105q131 -56 197 -103q197 -141 197 -335q0 -197 -150 -312q-138 -106 -362 -106q-370 0 -488 160z" />
<glyph unicode="4" horiz-adv-x="1122" d="M60 492q70 116 108 198q110 236 110 408q0 106 -61 170l-151 86q80 8 178 30q60 14 176 44q12 -2 28 -19q14 -18 15 -45q0 -174 -84 -448q-71 -232 -137 -346h393v560q0 58 -47 111q-31 35 -70 57q136 30 246 105q38 25 84 67q-18 -52 -27 -84q-29 -106 -29 -172v-644 h271l-179 -78h-92v-310q0 -119 38 -182h-234q39 64 39 182v310h-575z" />
<glyph unicode="5" d="M60 152q10 -2 22 -2q32 0 78 16q80 30 124 94q26 -112 101 -176q77 -68 189 -68q168 0 252 148q68 119 67 301q1 187 -89 291q-96 112 -280 112q-200 0 -387 -92v502q0 62 50 96q44 30 108 31h739q-48 -25 -94 -90q-53 -75 -53 -137q-112 154 -293 153h-282v-432l170 17 q584 0 583 -441q0 -214 -129 -352q-141 -151 -383 -151q-199 0 -367 90q-58 32 -126 90z" />
<glyph unicode="6" d="M78 604q0 338 198 564q208 236 541 237h256q-49 -35 -73 -59q-80 -80 -95 -168q-92 154 -266 153q-137 0 -237 -145q-136 -195 -136 -584q0 -582 279 -582q147 0 237 117q82 107 82 259v34q-2 14 -2 22q-12 128 -66 210q-68 100 -186 100q-62 0 -200 -62q70 124 233 124 q164 0 274 -90q119 -96 119 -255q0 -181 -135 -333q-144 -162 -342 -162q-246 0 -373 194q-108 166 -108 426z" />
<glyph unicode="7" d="M58 1220q34 52 63 109q65 125 79 195q46 -40 84 -60q114 -60 254 -59h525q-227 -241 -346 -493q-99 -214 -131 -462q-20 -164 -21 -450l-227 -64q0 372 137 736q146 386 414 659h-477q-142 0 -262 -55q-36 -18 -92 -56z" />
<glyph unicode="8" d="M53 389q1 184 177 299q58 37 176 78q-124 50 -183 114q-71 80 -71 210q0 162 129 252q114 80 282 80q167 0 281 -81q129 -91 129 -251q-1 -236 -261 -324q122 -44 177 -80q176 -115 176 -297q-1 -209 -153 -323q-136 -102 -353 -101q-237 0 -377 127q-130 118 -129 297z M228 375q0 -173 106 -275q96 -92 223 -92q156 0 246 108q84 100 84 261q0 152 -81 259q-88 118 -236 118q-133 0 -230 -90q-112 -105 -112 -289zM289 1086q0 -122 72 -208q76 -92 196 -92q113 0 187 68q88 80 88 236q0 120 -74 210q-79 96 -197 96q-126 0 -202 -94 q-70 -88 -70 -216z" />
<glyph unicode="9" d="M45 -16q54 39 76 59q82 79 94 168q38 -70 111 -111.5t153 -41.5q127 0 233 147q144 197 144 577q0 276 -53 414q-65 168 -217 168q-132 0 -224 -84q-108 -100 -108 -276q0 -12 2 -34t2 -34q12 -130 70 -209q68 -96 188 -96q68 1 142 29q26 10 59 30q-74 -116 -242 -116 q-171 0 -278 88q-115 96 -115 264q0 178 137 324q145 156 344 155q235 1 367 -191q114 -168 114 -416q0 -344 -196 -572q-207 -242 -545 -242h-258z" />
<glyph unicode=":" horiz-adv-x="403" d="M88 96q0 46 33 81.5t79 35.5q44 0 80 -34t36 -77q0 -48 -34 -83t-82 -35t-80 32t-32 80zM88 731q0 47 33 82t79 35q44 0 80 -33.5t36 -76.5q0 -48 -34 -84t-82 -36t-80 33t-32 80z" />
<glyph unicode=";" horiz-adv-x="332" d="M84 735q0 47 33 81t79 34q50 0 83 -32.5t33 -82.5q0 -48 -32 -80.5t-82 -32.5q-48 0 -81 33t-33 80zM100 121q0 40 28 67q26 27 66 27q56 0 90 -36.5t34 -92.5q0 -78 -54 -172q-64 -110 -156 -156q66 54 66 130q0 44 -30 110q-36 80 -42 106q-2 9 -2 17z" />
<glyph unicode="&#x3c;" horiz-adv-x="657" d="M2 561q140 46 244 159q88 96 116 212l154 22q-36 -122 -118 -222q-88 -108 -198 -154q180 -140 254 -224q64 -74 93 -147l-137 -33q-53 122 -236 266q-57 46 -172 121z" />
<glyph unicode="=" horiz-adv-x="938" d="M0 446l207 103h669l-206 -103h-670zM0 620l207 103h669l-206 -103h-670z" />
<glyph unicode="&#x3e;" horiz-adv-x="657" d="M96 928l138 34q46 -106 231 -256q52 -42 178 -130q-130 -42 -228 -142q-103 -102 -133 -231l-153 -23q39 123 119 223q86 108 196 156q-178 133 -258 223q-64 70 -90 146z" />
<glyph unicode="?" horiz-adv-x="884" d="M24 1208q0 105 107 193q115 94 267 94q174 -1 302 -111q140 -118 140 -300q0 -148 -100 -266q-44 -52 -186 -160q-100 -78 -100 -130t103 -166q-28 4 -80 8q-101 8 -147 9q-44 -1 -60 -7q18 132 128 240l188 186q96 125 96 302q0 142 -56 238q-68 116 -200 116 q-124 0 -202 -88q-74 -84 -74 -209q0 -124 63 -209q-82 26 -135 100q-54 74 -54 160zM301 92q0 46 35.5 79.5t81.5 33.5t80 -32.5t34 -78.5q0 -49 -36 -82q-36 -32 -86 -32q-46 0 -77.5 33t-31.5 79z" />
<glyph unicode="@" horiz-adv-x="1411" d="M28 545q0 290 208 469q196 170 491 170q301 0 479 -168q182 -172 182 -471q0 -139 -54 -257q-70 -148 -194 -148q-110 0 -188 151l-70 137q-172 -198 -306 -198q-96 0 -158 44q-68 50 -68 144q0 168 190 256q61 28 193 55l-45 99q-18 40 -39 59q-24 18 -59 18 q-16 0 -50 -16q-6 -3 -14 -9q122 64 140 142l53 -76q63 -90 71 -106l246 -494q58 -116 98 -120q62 0 62 319q0 252 -106 408q-123 181 -363 181q-231 0 -373 -184q-132 -169 -131 -405q-1 -261 147 -395q136 -124 468 -134l133 -4q-69 -52 -227 -51q-302 0 -504 158 q-212 166 -212 426zM454 469q0 -160 172 -160q130 -1 244 145l-126 248q-4 6 -19 6q-66 0 -160 -65q-111 -78 -111 -174z" />
<glyph unicode="A" horiz-adv-x="1409" d="M58 213q0 284 176 544q168 247 428 383l-56 126q-70 158 -256 212l276 -8q10 0 30 2t30 2q48 0 80 -73l432 -991q118 -270 254 -410h-260q-68 198 -162 391l-234 481l-712 -896q-26 97 -26 237zM226 328q0 -62 22 -86l532 663l-94 189q-140 -20 -290 -238 q-170 -246 -170 -528z" />
<glyph unicode="B" horiz-adv-x="1173" d="M-51 1466q53 26 119 27q158 -1 214 -117q152 116 332 117h4q123 0 185 -63q41 -42 41 -103q0 -173 -295 -321q59 0 145 -19q170 -37 272 -121q148 -122 148 -326q0 -238 -158 -374q-194 -168 -596 -168h-48q-12 0 -36 1q-22 1 -34 1h-92v1224q0 96 -52 166 q-57 76 -149 76zM295 1348q19 -42 19 -92v-226q67 -3 67 -4h-6q122 0 212 62q101 70 101 186q0 70 -40 116q-42 50 -112 50h-24q-134 0 -217 -92zM314 72q0 -24 40 -27q54 -4 72 -4q174 1 318 103q186 132 186 374q0 222 -192 356q-156 108 -324 109q-100 0 -100 -41v-870z " />
<glyph unicode="C" horiz-adv-x="1573" d="M58 692q0 342 218 558q226 222 613 222l655 2q-54 -44 -82 -114q-20 -53 -20 -88q0 -14 2 -27q-158 166 -432 166q-384 -1 -588 -205q-186 -188 -186 -506q0 -286 172 -472q176 -190 462 -191q339 0 572 309l-4 -154q-234 -208 -556 -208q-360 0 -581 170 q-245 189 -245 538z" />
<glyph unicode="D" horiz-adv-x="1720" d="M62 656q0 340 222 550q218 207 560 207q-280 -48 -448 -233q-175 -193 -175 -475q0 -284 177 -480q184 -205 466 -205q298 0 464 250q142 214 142 528q0 379 -324 548q-248 128 -667 128h-381q72 28 109 54q111 76 121 180q50 -70 102 -102q164 -102 471 -103 q283 -1 506 -201q243 -218 243 -532q0 -348 -236 -578q-234 -228 -582 -229q-314 0 -536 186q-234 197 -234 507z" />
<glyph unicode="E" horiz-adv-x="1603" d="M58 692q0 388 266 592q248 190 680 190h540q-86 -72 -102 -176q-2 -16 -2 -53q-165 166 -426 166q-268 -1 -457 -109q-165 -96 -231 -254h802q178 0 312 105v-245q-140 102 -312 102h-819q-67 -178 -67 -338q0 -284 186 -463q176 -168 428 -168q184 0 336 77 q166 82 248 234v-154q-110 -106 -286 -163q-158 -51 -326 -51q-324 0 -542 189q-228 199 -228 519z" />
<glyph unicode="F" horiz-adv-x="989" d="M28 1474h922v-18q0 -34 -10 -92q-4 -24 -14 -66q-224 140 -447 140q-31 -2 -123 -10q-12 0 -44 -4v-1232h663q-33 -82 -67 -122q-28 -32 -89 -74q-61 70 -179 110q-106 38 -210 38q-80 0 -118 -46v-462q-42 -18 -103 -66q-15 -12 -59 -47v1779q0 70 -60 128 q-20 20 -62 44z" />
<glyph unicode="G" horiz-adv-x="1587" d="M56 682q0 402 278 610q242 182 632 182h576q-98 -78 -98 -229q-158 166 -430 166q-338 -1 -548 -175q-226 -187 -226 -517q0 -273 159 -463q169 -200 437 -200q164 0 321 71q134 60 213 135l76 74v-369q0 -167 -123 -295q-103 -106 -221 -128q182 182 182 398v142 q-210 -96 -498 -96q-298 0 -511 196q-219 202 -219 498z" />
<glyph unicode="H" horiz-adv-x="1523" d="M-102 1968h414v-651q93 60 153 88q186 88 352 88q314 0 489 -224q158 -203 158 -527q0 -298 -147 -544q-139 -232 -342 -317q315 317 315 863q0 286 -94 442q-114 190 -377 217q-12 0 -37.5 2t-37.5 2q-176 0 -310 -80q-122 -73 -122 -151v-994q0 -111 32 -182h-236 q40 68 40 182v106l2 136l4 1161q0 95 -6 101q0 130 -126 218q-40 28 -124 64z" />
<glyph unicode="I" horiz-adv-x="463" d="M-102 1474h414v-1292q0 -114 32 -182h-236q40 68 40 182v1010q0 88 -32 141q-58 97 -218 141z" />
<glyph unicode="J" horiz-adv-x="459" d="M-102 1474h414v-1292q0 -204 -91 -374q-66 -126 -168 -218q-78 -70 -92 -69q95 160 143 346q44 163 44 315v1010q0 58 -8 86q-40 138 -242 196z" />
<glyph unicode="K" horiz-adv-x="1444" d="M-102 1960h414v-910q66 -4 58 -4q186 0 330 121q146 123 164 307h218q-58 -154 -208 -282q-172 -148 -382 -176q261 -90 401 -308q59 -94 241 -372q120 -182 324 -182q29 0 45 2l-266 -189q-234 203 -379 496l-190 385q-112 154 -356 154v-820q0 -114 32 -182h-236 q40 68 40 182v1496q0 134 -126 220q-40 28 -124 62z" />
<glyph unicode="L" horiz-adv-x="1014" d="M-102 1976h414v-1864q48 -56 155 -56q128 0 268 34q171 43 279 117l-86 -258q-84 25 -156 37q-56 9 -170 12l-494 14q40 64 40 182v1500q0 134 -126 221q-40 27 -124 61z" />
<glyph unicode="M" horiz-adv-x="2685" d="M56 768q0 336 252 530q230 176 576 176q286 0 431 -122q46 -40 88 -125q228 241 526 241q287 0 487 -198q210 -206 210 -522q0 -356 -262 -582q-222 -190 -472 -190q-182 0 -284 132q134 -84 290 -84q216 0 384 202q176 210 176 512q0 292 -178 491q-168 188 -390 188 q-188 0 -312 -102q-134 -110 -134 -293v-1022h-164v958q0 194 -106 334q-116 152 -296 152q-232 0 -419 -176q-207 -194 -207 -486q0 -353 196 -559q172 -180 412 -180h3q113 0 202 65q-82 -120 -254 -120q-259 0 -481 180q-274 223 -274 600z" />
<glyph unicode="N" horiz-adv-x="1466" d="M-51 1474h307l1008 -1224v934q0 122 -96 217q-30 29 -99 73h250v-1527q-12 8 -299 354l-822 987v-934q0 -212 168 -354h-292q72 112 72 226v1126q-48 41 -70 57q-80 59 -127 65z" />
<glyph unicode="O" horiz-adv-x="1745" d="M60 738q0 354 231 566q223 206 581 206q349 0 580 -210q238 -216 238 -562q0 -322 -220 -542q-231 -231 -595 -231h-3q-353 0 -579 208q-233 215 -233 565zM256 738q0 -324 182 -523q174 -191 434 -191q258 0 432 191q184 201 185 523q0 292 -156 498q-173 226 -455 226 q-258 0 -436 -196q-186 -206 -186 -528z" />
<glyph unicode="P" horiz-adv-x="1526" d="M-102 1456q74 24 158 24q148 0 224 -157q213 178 441 178q318 0 523 -171q218 -182 218 -494q0 -330 -210 -572q-225 -258 -576 -258q-201 0 -369 117l-12 -287q-5 -116 -50 -212q-53 -112 -147 -154q18 68 27 116q27 146 27 289v1243q0 98 -50 184q-68 119 -204 154z M314 213q0 -41 88 -90q106 -59 252 -59q624 0 624 778q0 268 -142 422q-147 160 -413 160h-37q-24 -4 -37 -4q-157 0 -251 -66q-84 -60 -84 -142v-999z" />
<glyph unicode="Q" horiz-adv-x="1749" d="M56 731q0 313 190 527q222 252 626 252q360 0 583 -205q231 -211 231 -567t-233 -569q-227 -206 -585 -206q-190 0 -364 78q-194 -151 -226 -395q276 244 570 244q72 0 229 -34q215 -44 275 -46h10l190 74q92 70 138 167q-98 -240 -98 -301q0 -18 8 -51q-4 -2 -21 -6 q-61 -19 -117 -19q-118 0 -347 55.5t-347 55.5q-170 0 -340 -90q-152 -81 -221 -185q43 362 239 558q-184 96 -288 276q-102 177 -102 387zM256 738q0 -394 256 -592q56 52 104 92q116 98 281 194q201 119 397 174q-160 -126 -160 -278q-212 -28 -346 -86 q-118 -50 -214 -146q126 -72 286 -72q324 0 486 210q143 185 143 500q0 325 -183 528q-174 194 -434 194q-256 0 -432 -194q-184 -204 -184 -524z" />
<glyph unicode="R" horiz-adv-x="1245" d="M-22 1470q132 0 180 -13q92 -25 122 -117q167 166 396 166q140 0 228 -67q98 -74 98 -210q0 -157 -138 -295q-100 -100 -256 -178q-118 -60 -137 -60q126 -62 262 -212l233 -258q118 -130 367 -226h-383q-28 34 -169 209t-251 291q-137 147 -181 147h-1q-39 0 -39 -12 v-453q0 -126 33 -182h-234q40 68 40 182v1014q0 117 -84 207q-26 27 -86 67zM309 725q31 0 135 37q162 58 254 139q138 121 138 291q0 202 -197 223q-10 0 -29.5 2.5t-29.5 2.5q-98 0 -175 -40q-96 -50 -96 -139v-516z" />
<glyph unicode="S" horiz-adv-x="1153" d="M58 1036q0 174 151 312q170 155 431 155h3q174 0 375 -88q-24 -41 -35 -69q-35 -85 -35 -154v-20q4 -14 4 -21q-116 289 -397 289q-162 0 -262 -84q-107 -90 -107 -250q0 -172 240 -250q36 -12 444 -135q240 -106 240 -340q0 -163 -144 -281q-157 -128 -405 -128 q-269 0 -501 108q74 114 73 242q68 -102 117 -150q154 -152 328 -152q163 0 272 56q154 78 154 248q0 203 -244 276q-18 6 -457 131q-245 95 -245 305z" />
<glyph unicode="T" horiz-adv-x="1671" d="M-45 1290l4 6q125 188 139 298q45 -40 82 -60q112 -60 256 -60h1250q-76 -52 -99 -92q-25 -44 -45 -137q-104 156 -324 156h-220q-170 0 -363 -240q-213 -264 -213 -571q0 -236 136 -384q139 -153 369 -153h3q418 0 612 291v-158q-244 -202 -616 -202q-305 0 -490 145 q-202 161 -202 449q0 214 143 426q104 154 266 290q125 106 143 107h-477h-5q-153 0 -265 -55q-37 -18 -84 -56z" />
<glyph unicode="U" horiz-adv-x="1519" d="M58 668q0 168 84 321q14 25 186 317q0 38 -46 74q-98 76 -98 82l12 12h310q16 0 16 -10q0 -6 -4 -14q-112 -122 -188 -316q-84 -210 -84 -462q0 -270 112 -434q130 -191 386 -191q50 1 126 13q150 24 250 108q90 76 90 150v906q0 98 -78 185q-28 29 -80 65h320v-1474 h-162v166q-86 -64 -145 -96q-185 -96 -371 -96q-292 0 -468 204q-168 194 -168 490z" />
<glyph unicode="V" horiz-adv-x="1444" d="M-45 1474h393q-14 -30 -14 -84q0 -266 360 -921q116 -212 127 -223l445 844q74 140 74 225q0 103 -116 159h312q-62 -111 -200 -366q-156 -288 -320 -612q-200 -396 -276 -580l-154 368q-160 384 -312 682q-199 394 -319 508z" />
<glyph unicode="W" horiz-adv-x="2226" d="M58 696q0 168 84 314q14 24 186 288q0 38 -92 103q-46 32 -46 53q0 20 31 20h252q47 0 47 -18q0 -6 -4 -12q-97 -108 -174 -278q-100 -222 -100 -433q0 -293 123 -469q141 -202 421 -202q202 0 332 100q-64 78 -94 139q-94 189 -94 432q0 171 80 381q26 66 80 178 q0 20 -68 92t-68 74v4q0 4 4 8q2 0 4 2l222 2q34 0 40 -16q-32 -112 -67 -288q-39 -192 -39 -363q0 -745 426 -745q126 0 239 64q134 76 134 192v906q0 83 -33 129q-24 33 -104 87q-22 14 -23 26q0 4 2 6l25 2h294v-1474h-161v170q-67 -92 -182 -146q-111 -52 -227 -52 q-201 0 -355 153q-191 -153 -457 -153q-301 0 -479 233q-159 207 -159 491z" />
<glyph unicode="X" horiz-adv-x="1468" d="M0 0q16 56 428 754l148 250l-146 172q-170 200 -316 200q-18 0 -112 -20q94 94 211 94q201 0 403 -266l38 -50q10 18 24 40q10 14 18 20q218 305 424 305q92 -1 168 -35q-111 -92 -129 -237q-33 125 -147 125q-84 0 -188 -98q-96 -88 -126 -172l816 -1082h-250 q-214 342 -422 649q-166 247 -218 297q-64 -77 -182 -348q-138 -320 -200 -598h-242z" />
<glyph unicode="Y" horiz-adv-x="1519" d="M60 620q0 228 88 376l180 302q-6 42 -55 82q-9 7 -83 62q0 18 2 24q4 8 15 8h281q22 0 26 -24v-16q2 -6 0 -8q-14 -14 -53 -58q-67 -76 -119 -196q-64 -150 -86 -318q-6 -50 -8 -106l-2 -70v-30q0 -275 139 -445q135 -162 363 -162q182 1 336 99q126 80 126 178v906 q0 90 -49 144q-55 45 -109 90q0 16 25 16h295v-1232q0 -700 -712 -701q-299 1 -482 89q40 16 144 79q34 19 92 59q94 -166 340 -166q232 0 342 169q84 129 110 389q-156 -160 -412 -182q-12 0 -48 -2q-48 -2 -34 -2q-278 0 -462 176q-190 182 -190 470z" />
<glyph unicode="Z" horiz-adv-x="1622" d="M14 0l1311 1310h-766q-103 0 -295 -42q-72 -16 -172 -44q172 170 234 324q90 -70 160 -92q92 -30 280 -30l352 -2q68 0 162 10q64 6 150 14l38 4q60 0 60 -28q0 -16 -4 -21l-1088 -1085q78 30 129 46q153 50 233 50q142 0 392 -160q116 -74 211 -74q59 0 121 18 q16 4 55 21q-103 -249 -262 -344q-44 13 -379 283q-124 100 -268 100q-126 0 -285 -78q-125 -62 -233 -145q-26 -20 -97 -80z" />
<glyph unicode="[" horiz-adv-x="622" d="M144 -72v1446q0 82 67 121q21 13 67 23h271l-197 -80l-63 8v-1446h260l-197 -72h-208z" />
<glyph unicode="\" horiz-adv-x="1032" d="M45 1558l4 19h189l646 -1524q24 -58 62 -102h-108q0 16 -10 47q-4 11 -15 37l-516 1231q-54 128 -125 204q-43 46 -127 88z" />
<glyph unicode="]" horiz-adv-x="622" d="M-12 -82l198 82l64 -8v1446h-262l198 72h210v-1446q0 -60 -38 -102q-40 -44 -98 -44h-272z" />
<glyph unicode="^" horiz-adv-x="901" d="M217 928q77 64 107 90q112 100 126 139q42 -47 76 -75q92 -80 174 -101l-90 -78q-44 14 -126 84q-20 15 -78 67q-10 -24 -86 -88q-24 -20 -78 -58z" />
<glyph unicode="_" horiz-adv-x="852" d="M-150 -286l148 81h1002l-148 -81h-1002z" />
<glyph unicode="`" horiz-adv-x="524" d="M16 1446l21 94l98 43l297 -309l-20 -29z" />
<glyph unicode="a" horiz-adv-x="942" d="M45 234q1 158 165 266q135 88 310 110l-59 117q-41 82 -133 82q-32 -1 -62 -15q14 16 74 52q96 57 96 127q40 -41 56 -61q67 -84 106 -164l373 -748h-147l-118 236q-192 -226 -378 -246q-12 -2 -33 -2q-108 0 -179 69t-71 177zM172 291q0 -86 52 -144q54 -61 138 -61 q18 2 27 2q180 23 303 178l-158 314q-130 0 -240 -78q-122 -86 -122 -211z" />
<glyph unicode="b" horiz-adv-x="948" d="M49 414q0 118 71 245q30 54 132 190q72 94 72 134q0 57 -50 107q-58 60 -143 74q54 18 158 24q111 8 172 43q11 6 21 6h1q33 0 33 -53q0 -66 -96 -242q-70 -120 -138 -240q-82 -146 -82 -282q0 -140 68 -256q80 -140 211 -140q107 0 191 105q92 115 92 293q0 138 -48 240 q-64 132 -186 132q-42 0 -124 -32q-26 -10 -74 -33q66 127 227 127q141 0 235 -86q108 -100 109 -282q-1 -190 -113 -340q-123 -164 -309 -164q-192 0 -311 119t-119 311z" />
<glyph unicode="c" horiz-adv-x="862" d="M43 446q1 172 135 291q130 113 304 113q194 0 292 -142q-72 -68 -160 -80l6 40q0 53 -33 87.5t-85 34.5q-16 2 -25 2q-125 0 -210 -108q-79 -100 -79 -230q0 -162 98 -285q106 -134 263 -134q174 0 285 168q0 -103 -138 -171q-116 -56 -229 -56q-189 0 -313 155 q-110 139 -111 315z" />
<glyph unicode="d" horiz-adv-x="1003" d="M45 434q0 186 122 305q121 117 308 117q155 0 281 -80v192q0 128 -164 170q96 10 234 97q42 27 116 84q-29 -63 -39 -103q-16 -64 -16 -162v-912q1 -76 29 -142h-160v82q-134 -106 -289 -106q-192 0 -310 134q-112 128 -112 324zM196 414q0 -148 58 -256 q72 -134 209 -134q107 0 205 80q88 72 88 130v390q0 74 -109 134q-96 53 -176 53q-141 0 -215 -135q-60 -108 -60 -262z" />
<glyph unicode="e" horiz-adv-x="846" d="M45 434q0 196 131 318q118 108 266 108q124 0 218 -58q110 -68 110 -184h-563q-23 -112 -23 -184q0 -160 91 -264q95 -108 253 -108q70 0 187 52q40 18 102 56q-81 -98 -155 -140q-84 -46 -201 -46q-167 0 -293 142q-122 138 -123 308zM221 660h405q-10 72 -64.5 118 t-127.5 46q-98 0 -143 -58q-41 -64 -70 -106z" />
<glyph unicode="f" horiz-adv-x="671" d="M-37 1306q165 -16 193 -16q20 0 136.5 61.5t166.5 61.5q64 -1 124 -43q57 -40 89 -98h-23q-11 2 -21 0q-100 -16 -155 -111l9 53q4 25 4 56q0 35 -25 59.5t-59 24.5q-66 0 -113 -66q-53 -74 -53 -204v-556h4q26 0 76 18.5t77 18.5q13 0 129 -16q54 -9 111 -19 q-52 -59 -146 -59h-3q-38 0 -74 8q-93 21 -105 21q-27 0 -69 -12v-408l-132 -102v1099q0 80 -67 160q-22 25 -70 65z" />
<glyph unicode="g" horiz-adv-x="1022" d="M60 774q8 52 82 102q24 16 75 42q71 -92 195 -92h506l-27 -52h-215q-206 0 -340 -141q-125 -131 -125 -305v-27q4 -19 4 -27q13 -105 77 -174q70 -76 171 -76q147 0 275 193q136 203 136 477q34 -34 42 -82q4 -21 4 -94v-100q0 -384 -99 -633q-127 -321 -395 -321 q-94 0 -194 52q-104 55 -148 134q44 20 108 110q69 98 105 121q-11 -35 -19 -73q-20 -88 -20 -111q0 -61 50 -115q47 -50 110 -66h41q117 0 201 114q95 128 118 370q2 26 2 39v82q-4 17 -4 25l-24 -27q-140 -152 -342 -152q-162 0 -250 94q-86 93 -86 255q0 326 399 458 h-413z" />
<glyph unicode="h" horiz-adv-x="940" d="M-60 1112q114 16 134 33q62 54 215 131q-28 -52 -39 -92q-16 -62 -16 -162v-282q52 34 88 50q112 54 218 54q336 0 336 -488q0 -162 -30 -356h-146q58 134 58 316q0 188 -55 304q-74 158 -240 158q-177 0 -229 -162v-518q0 -52 28 -98h-192q32 40 32 98v840q0 58 -80 121 q-26 20 -82 53z" />
<glyph unicode="i" horiz-adv-x="344" d="M-28 826h268v-728q0 -56 30 -98h-190q26 44 26 98v554q0 86 -67 138q-19 16 -67 36zM53 1157q0 44 29.5 76.5t73.5 32.5q43 0 72.5 -29.5t29.5 -72.5q0 -46 -30 -76.5t-76 -30.5q-40 0 -69.5 29.5t-29.5 70.5z" />
<glyph unicode="j" horiz-adv-x="340" d="M-37 826h273v-826q0 -178 -84 -320q-74 -126 -187 -184q46 76 68 132q69 176 69 372v652q0 82 -69 134q-18 14 -70 40zM45 1157q0 44 29.5 76.5t73.5 32.5q42 0 72 -30t30 -72t-30 -74.5t-72 -32.5q-44 0 -73.5 28.5t-29.5 71.5z" />
<glyph unicode="k" horiz-adv-x="930" d="M-45 1110q160 36 346 164q-28 -60 -37 -90q-16 -58 -16 -162v-434q208 0 315 57q93 49 93 121q0 28 -23 60h199q0 -74 -78 -140q-92 -78 -266 -118q166 0 270 -138q90 -120 106 -297q0 -13 2 -29v-22q0 -41 -6 -82l-135 2l6 110v36q0 182 -127 290q-112 96 -262 96 q-53 0 -94 -14v-422q0 -43 26 -98h-192q32 32 32 98v840q0 57 -79 119q-18 14 -80 53z" />
<glyph unicode="l" horiz-adv-x="532" d="M56 488q0 102 51 267q13 46 93 261q0 57 -28 86l-66 66q0 10 80 28q208 48 250 68q-107 -160 -177 -366q-75 -218 -75 -398q0 -488 390 -488q-46 -40 -134 -40q-10 0 -28 2t-27 2q-141 14 -231 145q-98 143 -98 367z" />
<glyph unicode="m" horiz-adv-x="1446" d="M-37 821q43 1 166 17q59 8 109 18v-116q76 32 124 48q140 52 191 52q135 0 189 -88q156 86 256 86q216 0 310 -132q80 -112 80 -338q0 -190 -46 -368h-136q52 135 52 303q0 479 -279 479q-106 0 -201 -82q22 -62 31 -100q31 -122 31 -240q0 -122 -4 -186q-4 -72 -25 -174 h-135q45 114 45 316q-1 462 -275 462q-70 0 -136 -44q-72 -50 -72 -118v-518q0 -52 28 -98h-192q32 42 32 98v500q0 86 -71 164q-22 24 -72 59z" />
<glyph unicode="n" horiz-adv-x="952" d="M-45 821q71 1 189 17q47 6 102 18v-116q56 34 98 52q120 56 196 56q140 0 232 -94q117 -122 117 -377q0 -228 -41 -377h-136q58 126 58 332q0 180 -58 296q-76 150 -237 150q-99 0 -168 -57q-61 -51 -61 -105v-518q0 -41 28 -98h-192q32 40 32 98q2 4 2 68v402 q0 24 -2 30q-12 174 -159 223z" />
<glyph unicode="o" horiz-adv-x="964" d="M45 414q0 190 124.5 316t314.5 126q193 0 314.5 -124t121.5 -318q0 -203 -119 -320.5t-322 -117.5q-193 0 -313.5 122t-120.5 316zM196 404q0 -146 69 -258q81 -132 219 -132q145 0 221 134q63 110 63 266t-63 264q-77 133 -221 133q-146 0 -224 -137q-64 -112 -64 -270z " />
<glyph unicode="p" horiz-adv-x="1020" d="M-14 826q27 10 57 10q94 0 176 -82q50 31 88 47q112 49 203 49q196 0 318 -111q126 -115 126 -309q0 -164 -120 -297q-132 -145 -322 -145q-137 0 -221 49q-27 16 -55 49v-280q0 -108 80 -174q-100 -44 -150 -84q-16 -14 -31 -34q-8 -4 -14 -4q-17 0 -17 23v1041 q0 170 -118 252zM236 244q0 -53 86 -123q98 -80 202 -80q136 0 208 127q58 104 58 250q0 154 -60 256q-74 124 -218 124q-78 0 -170 -48q-106 -56 -106 -128v-378z" />
<glyph unicode="q" horiz-adv-x="1020" d="M53 406q0 178 115 300q132 142 364 142q194 -29 336 -29q50 1 92 7q-58 -66 -57 -160v-885q1 -39 17 -76q2 -10 16 -37q-42 -20 -106 -78q-20 -18 -60 -57v553q-36 -32 -68 -49q-92 -49 -208 -49q-194 0 -316 110q-124 114 -125 308zM213 418q0 -152 56 -250 q70 -122 210 -123q110 0 207 76q84 67 84 123v378q0 72 -105 128q-91 48 -169 48q-144 0 -220 -123q-62 -102 -63 -257z" />
<glyph unicode="r" horiz-adv-x="846" d="M0 826q24 8 58 8q95 0 155 -62q103 92 241 92q113 0 191 -43q93 -51 93 -149q0 -150 -204 -234q-64 -26 -204 -55q140 -15 362 -243q98 -100 182 -101q-54 -43 -136 -43q-59 0 -224 162q-178 175 -232 186l-48 2v-236q0 -38 16 -110h-172q22 40 22 110v554 q0 110 -100 162zM234 402l42 2q132 6 232 88q78 64 86 143q0 76 -50 124t-126 48h-4q-48 0 -106 -23q-74 -30 -74 -72v-310z" />
<glyph unicode="s" horiz-adv-x="805" d="M45 244q63 8 137 55q24 16 60 47q-42 -60 -42 -116q0 -92 62 -146q58 -51 152 -51h3q72 0 131 43q66 48 66 120q0 122 -130 164q-62 19 -243 76q-131 42 -131 170q0 114 112 184q94 58 216 58q234 0 279 -196q-46 -12 -76 -40q-21 -18 -103 -100q40 50 40 123t-47 115 q-43 40 -117 40q-79 0 -132 -44q-56 -46 -56 -124q0 -108 132 -153q55 -19 248 -76q136 -57 136 -176q0 -127 -122 -189q-96 -48 -235 -48q-134 0 -226 64q-102 72 -114 200z" />
<glyph unicode="t" horiz-adv-x="866" d="M-14 772q22 44 34 66q41 68 58 67q122 -79 248 -79h569l-27 -54h-254q-128 0 -244 -125q-124 -133 -124 -299q0 -130 78 -214q79 -85 205 -85h3q72 0 172 41q38 16 84 43q-87 -149 -325 -149q-157 0 -259 89q-106 95 -106 251q0 174 174 328q58 52 176 120h-462z" />
<glyph unicode="u" horiz-adv-x="991" d="M60 356q0 94 52 201q18 36 54 84q-6 54 -45 123q-12 22 -41 62h221q15 0 21 -19q2 -7 2 -17q-50 -98 -88 -202q-44 -118 -44 -199q0 -303 279 -329q22 -2 45 -2q74 0 144 29q90 37 90 101v488q0 100 -96 150h256q-28 -41 -28 -99v-629q0 -36 28 -98h-160v100 q-50 -37 -90 -57q-116 -59 -220 -59q-173 0 -276.5 100t-103.5 272z" />
<glyph unicode="v" horiz-adv-x="831" d="M-14 826h280q-28 -52 -28 -126q0 -63 30 -147q13 -35 54 -141l6 -14q60 -154 120 -246l206 462q36 82 36 124q0 44 -45 88h201l-440 -859q-42 76 -130 295q-92 232 -120 292q-68 140 -170 272z" />
<glyph unicode="w" horiz-adv-x="1435" d="M60 356q0 72 54 197l54 123q-4 24 -45 88q-14 20 -43 62h232q10 0 10 -9q-2 -20 -2 -39q-46 -66 -82 -176q-42 -126 -42 -250q0 -113 62 -192q66 -86 176 -86q119 0 203 84q-27 104 -27 170q0 46 39 184q14 49 39 129q0 64 -43 131q-11 18 -43 54h236q10 0 12 -15v-29 q0 -26 -10 -44q-24 -44 -52 -99q-16 -33 -30 -117q-12 -72 -12 -120q0 -136 58 -228q68 -108 196 -108q138 0 202 122v488q0 102 -96 150h256q-26 -41 -26 -99v-629q0 -46 26 -98h-160v100q-15 -4 -112 -64q-84 -52 -185 -52q-78 0 -146 35q-75 40 -99 108 q-148 -147 -292 -147q-308 0 -308 376z" />
<glyph unicode="x" horiz-adv-x="991" d="M-250 -477q120 75 270 281q146 199 258 442l97 208l-53 93q-120 207 -228 207l-90 -16l199 98q154 -60 217 -172l41 -74q57 88 98 131q125 131 260 131q78 0 152 -45q-21 -48 -131 -131q-54 70 -107 70h-8q-49 0 -141 -109q-32 -39 -84 -109q56 -88 76 -130 q40 -82 86 -172q90 -172 153 -173q82 1 82 101q0 14 -2 34q-5 20 -17 44l128 -107q-46 -129 -170 -129q-91 0 -192 82q-83 68 -140 162l-78 126l-24 -86q-14 -48 -40 -90q-158 -366 -306 -510q-161 -157 -304 -157h-2z" />
<glyph unicode="y" horiz-adv-x="983" d="M60 328q0 88 50 214q16 42 52 110v8q0 62 -82 166h223q11 0 17 -28q-128 -294 -128 -442q0 -316 277 -342q21 -2 25 -2h24q78 0 146 32q86 40 86 110v516q0 106 -96 156h256q-28 -45 -28 -105v-661q0 -244 -150 -424q-159 -189 -400 -189q-142 1 -213 115l133 178 q-6 -24 -6 -47q0 -72 50 -127q52 -58 122 -58q150 0 236 142q68 112 84 266q2 8 12 144q-34 -42 -66 -62q-98 -64 -242 -64q-180 0 -282 107q-100 105 -100 287z" />
<glyph unicode="z" horiz-adv-x="944" d="M14 0l703 744h-395q-50 0 -160 -23q-48 -11 -98 -25l147 197q77 -69 361 -69q58 0 226 16q46 4 66 4h6q6 -6 6 -14q2 -8 -6 -17l-600 -608q44 19 92 35q104 34 134 34q62 0 181 -63t121 -63q14 0 70 10q26 4 48 10q-58 -136 -162 -211q-36 12 -218 162q-68 57 -130 57 q-178 0 -355 -176h-37z" />
<glyph unicode="{" horiz-adv-x="540" d="M41 729q131 92 131 209v368q0 130 104 196q88 56 224 56q-54 -8 -104 -55q-62 -60 -62 -147v-418q0 -74 -38 -124q-28 -35 -102 -85q140 -69 140 -207v-418q0 -84 82 -151q26 -21 84 -51q-140 0 -226 54q-102 66 -102 198v368q0 72 -66 148q-24 28 -65 59z" />
<glyph unicode="|" horiz-adv-x="332" d="M76 0v1556h131v-1556h-131z" />
<glyph unicode="}" horiz-adv-x="540" d="M24 -98q56 8 105 55q63 61 63 147v418q0 119 140 207q-140 84 -140 209v418q0 84 -84 152q-24 18 -84 50q330 0 330 -252v-368q0 -88 66 -158q22 -24 66 -51q-132 -76 -132 -207v-368q0 -128 -105 -196q-91 -56 -225 -56z" />
<glyph unicode="~" horiz-adv-x="942" d="M160 903q90 158 198 158q60 0 160 -37q54 -20 92 -20q80 0 156 57q-70 -153 -194 -153q-40 0 -122 30q-76 28 -110 28q-104 0 -180 -63z" />
<glyph unicode="&#xa1;" horiz-adv-x="418" d="M68 1386q0 48 38 82q36 33 84 33q46 0 76.5 -33.5t30.5 -79.5t-34 -81q-35 -35 -81 -35t-80 34t-34 80zM74 -28q12 42 22 86q24 108 25 157v811q0 50 -31 94h190q-32 -40 -30 -94q6 -170 14 -360q16 -359 22 -371q0 -78 126 -166q-76 -13 -216 -86q-40 -21 -122 -71z" />
<glyph unicode="&#xa2;" horiz-adv-x="934" d="M70 442q0 152 116 260q100 94 260 134q0 80 -104 210h184v-206q164 0 275 -138q-66 -60 -160 -80q4 10 4 21q0 42 -51 88q-22 19 -68 49v-727q30 -6 58 -6q106 0 202 82q30 26 74 82q-29 -100 -111.5 -159.5t-187.5 -59.5q-23 0 -35 2q0 -70 19 -148h-117q14 58 18 148 q-158 18 -268 154q-108 132 -108 294zM213 459q-1 -117 63 -224q66 -111 170 -157v700q-234 -93 -233 -319z" />
<glyph unicode="&#xa3;" horiz-adv-x="1153" d="M45 670q41 100 143 110v379q0 66 -51 160q-19 33 -51 77q45 -6 94 -16q63 -12 70 -12q24 0 209 86q87 41 151 41q236 1 326 -141q-152 0 -198 -111q4 15 4 23q10 58 10 90q0 44 -44 72q-38 24 -86 24q-121 0 -198 -84q-76 -82 -76 -204v-363l82 10l318 -51 q-60 -60 -150 -60q-28 0 -110 12q-72 10 -99 11h-21q-14 -4 -20 -4v-617q0 -32 81 -47q51 -10 103 -10q120 0 281 33q209 42 325 118l-86 -262q-106 20 -198 33q-250 33 -467 33h-317q118 68 118 184v516q-18 6 -34 6q-34 0 -109 -36z" />
<glyph unicode="&#xa4;" horiz-adv-x="1229" d="M98 1172l92 92l152 -152q117 88 264 88q152 0 262 -86l138 140l92 -93l-140 -137q84 -114 84 -266q0 -156 -78 -268l122 -124l-90 -90l-124 124q-112 -80 -270 -80q-148 0 -264 84l-138 -138l-90 90l138 138q-80 112 -80 264q0 147 82 262zM320 748q0 -150 62 -240 q72 -102 216 -102h16q2 0 4 2q96 0 164 55q108 89 109 295q0 348 -285 348q-140 -18 -194 -74q-92 -94 -92 -284z" />
<glyph unicode="&#xa5;" horiz-adv-x="1501" d="M123 620q-1 164 77 306q86 128 175 254q0 26 -70 96q-21 22 -71 68h46l185 6q86 4 92 -6q-106 -124 -174 -302q-80 -208 -80 -422q0 -250 105 -402q122 -177 360 -177q124 1 236 49q134 58 168 160h-378l189 70h195v800q0 80 -72 164q-22 26 -72 68h291v-1032h267 l-189 -70h-78v-12q0 -20 2 -40q0 -128 -37 -239h302l-189 -69h-139q-135 -316 -588 -316q-178 0 -328 43q-46 13 -116 43q34 8 124 68q16 11 92 61q0 -65 134 -115q110 -40 188 -40q274 0 368 256h-344l189 69h176q19 81 19 187q-170 -170 -474 -170q-270 0 -430 190 q-151 178 -151 454z" />
<glyph unicode="&#xa6;" horiz-adv-x="332" d="M76 0v614h133v-614h-133zM76 768v614h133v-614h-133z" />
<glyph unicode="&#xa7;" horiz-adv-x="768" d="M8 649q0 207 211 263q-211 60 -211 208q0 142 113 215q95 61 245 61q174 0 316 -65q-12 -28 -22 -61q-24 -72 -25 -90q-29 72 -103 126q-84 62 -178 62q-274 0 -274 -172q0 -146 156 -190l288 -80q158 -44 158 -188q0 -92 -65 -166q-59 -68 -152 -99q104 -24 152 -60 q65 -51 65 -143q0 -136 -121 -218q-105 -72 -249 -72q-138 0 -244 50q28 34 36 124q0 14 4 40q48 -180 256 -180q236 0 236 207q0 95 -154 147q-32 11 -284 95q-154 68 -154 186zM80 725q0 -76 49 -125q80 -80 295 -112q176 30 176 202q0 68 -55 106q-68 48 -256 95 q-85 0 -143 -40q-66 -46 -66 -126z" />
<glyph unicode="&#xa8;" horiz-adv-x="538" d="M6 1450q0 43 28 70.5t70 27.5t70.5 -28.5t28.5 -71.5q-1 -96 -101 -96q-96 0 -96 98zM346 1450q0 42 29 70t71 28q96 0 96 -98t-96 -98q-100 0 -100 98z" />
<glyph unicode="&#xa9;" horiz-adv-x="1673" d="M98 727q0 320 210 535q212 216 532 216q318 0 528 -217q208 -215 209 -534q1 -317 -209 -533q-212 -218 -528 -218q-314 0 -529 218q-213 218 -213 533zM228 727q0 -261 173 -445q177 -188 437 -188q264 0 440 185q172 182 172 448q0 265 -172 447q-176 184 -440 184 t-440 -184q-170 -180 -170 -447zM372 704q0 214 147 338q137 116 355 117h396q-44 -32 -58 -86q-4 -15 -4 -47q-93 96 -260 96q-212 0 -334 -98q-132 -108 -132 -316q0 -168 108 -277q106 -109 274 -109q208 0 344 180l-2 -88q-142 -122 -334 -123q-214 -1 -348 97 q-152 110 -152 316z" />
<glyph unicode="&#xaa;" horiz-adv-x="854" d="M119 966l23 86h562l-22 -86h-563zM176 1241q0 80 94 133q72 42 164 52l-30 57q-20 39 -74 39q-16 0 -33 -6l58 34q34 24 34 52q56 -52 88 -111l203 -365h-80l-64 115q-104 -111 -206 -119q-12 -2 -23 -2q-49 0 -86 31q-45 37 -45 90zM246 1268q0 -98 110 -98q92 0 172 88 l-86 151q-68 0 -127 -36q-69 -41 -69 -105z" />
<glyph unicode="&#xab;" horiz-adv-x="1034" d="M45 418q145 48 248 151q105 106 145 250l168 25q-39 -132 -129 -241q-95 -116 -215 -167q106 -78 158 -124q168 -148 219 -273l-149 -37q-48 118 -250 278q-68 54 -195 138zM393 418q311 102 393 401l168 25q-40 -132 -129 -241q-95 -115 -215 -167q110 -82 170 -135 q176 -156 207 -262l-149 -37q-66 134 -260 287q-57 45 -185 129z" />
<glyph unicode="&#xac;" horiz-adv-x="2228" d="M58 127q0 45 24 115q28 79 45 102l78 104q-75 0 -91 80q10 -2 21 -2q45 0 95 25q60 29 110 75q4 0 8 2q8 -10 8 -28q0 -68 -47 -104q-37 -24 -75 -50l-60 -82q-39 -54 -39 -94q1 -28 13 -66q16 -48 36 -48q34 0 121 59q30 21 121 84q43 93 88 185q38 42 58 42 q26 0 26 -26q0 -42 -51 -88q-17 -16 -51 -37q-28 -62 -29 -123q0 -24 37 -78q32 -46 57 -72q37 170 248 357q199 175 369 209q258 52 397 51q151 0 325 -31q110 -20 183 -106q100 -120 100 -354q-1 -252 -289 -252q-132 0 -132 52q0 40 38 40q40 0 58 -35q4 -13 12 -19 q10 -8 43 -18q98 0 157.5 62t59.5 161q0 250 -78 338q-67 76 -207 92l-213 25q-68 8 -124 8q-70 0 -144 -12l-121 -21q-183 -31 -403 -215q-234 -194 -254 -366q40 -66 40 -126q0 -28 -2 -32q-6 -12 -18 -12q-26 0 -43 49q-14 39 -14 71v10q-70 58 -78 66q-53 52 -57 80 q0 12 -4 49q-2 24 -2 27q0 16 2 22q-64 -54 -148 -108q-112 -72 -160 -72q-40 0 -44 35zM674 37q0 4 2 8q6 27 43 27q39 0 63 -25q8 -11 10 -25q0 -4 -2 -8q-8 -26 -46 -26t-60 24q-10 12 -10 25zM792 110q0 104 118 136l4 -6q-41 -18 -56 -31q-24 -19 -28 -57q0 -70 92 -99 q64 -20 155 -20q134 -1 246 77q51 36 51 84q0 28 -22 46q-24 14 -86 14q-22 0 -65 -4t-65 -4q-166 0 -165 126q-1 94 93 152q80 50 181 50q37 0 53 -2q16 -4 33 -25q7 2 13 2q15 -1 24 -19q14 -28 20 -32l4 -8q-2 -11 -24 -33q-24 -24 -28 -35q-2 -8 -9 -8q-4 0 -10 4 q-9 4 -27 18q-30 6 -30 18q0 8 16 36q16 26 16 36q0 22 -22 27q-18 4 -35 4q-76 -1 -137 -33q-78 -40 -78 -110q0 -72 112 -68l114 4q72 2 112 -10q64 -20 64 -82q0 -96 -126 -188q-132 -98 -294 -98q-86 0 -142 28q-72 36 -72 110zM1336 39q0 4 2 10q6 25 38 25q8 0 25 -4 q47 -12 47 -44v-8q-6 -24 -43 -24q-15 0 -23 2q-46 16 -46 43zM1510 76q0 34 46 82q30 -36 40 -44q22 -18 52 -18q74 0 136 127q53 110 53 195q-1 78 -107 78q-88 0 -88 -48q-1 -48 -18 -57l-14 31q2 8 2 26v40q0 48 16 67q26 31 96 31q194 0 195 -70q1 -60 -59 -194 q-48 -110 -96 -193q-32 -55 -56 -84q-44 -53 -86 -53q-36 0 -72 24q-40 26 -40 60z" />
<glyph unicode="&#xad;" horiz-adv-x="696" d="M45 406l82 141h525l-82 -141h-525z" />
<glyph unicode="&#xae;" horiz-adv-x="1673" d="M98 727q0 320 210 535q212 216 532 216q318 0 528 -217q208 -215 209 -534q1 -317 -209 -533q-212 -218 -528 -218q-314 0 -529 218q-213 218 -213 533zM228 727q0 -261 173 -445q177 -188 437 -188q264 0 440 185q172 182 172 448q0 265 -172 447q-176 184 -440 184 t-440 -184q-170 -180 -170 -447zM442 1182q80 0 110 -8q56 -16 74 -72q104 100 242 100q86 0 140 -40q60 -44 59 -128q0 -136 -162 -244q-51 -34 -161 -82q32 -16 282 -268q106 -108 244 -158h-234q-322 396 -366 396q-24 0 -25 -8v-277q1 -75 21 -111h-144q25 43 25 111 v621q1 68 -51 124q-18 20 -54 44zM645 725q110 29 160 55q161 86 161 232q0 50 -24 86q-28 42 -74 47q-31 4 -59 4q-61 1 -107 -23q-58 -30 -57 -86v-315z" />
<glyph unicode="&#xaf;" horiz-adv-x="549" d="M0 981v127h549v-127h-549z" />
<glyph unicode="&#xb0;" horiz-adv-x="311" d="M0 1132q0 68 44 112t112 44t112 -43t44 -111q0 -70 -44 -112q-42 -43 -112 -43q-67 0 -111.5 43.5t-44.5 109.5zM66 1134q0 -36 27 -65t63 -29q40 0 67 29q23 23 23 57v8q0 38 -26 67.5t-64 29.5q-39 0 -64.5 -28.5t-25.5 -68.5z" />
<glyph unicode="&#xb1;" horiz-adv-x="1018" d="M172 448l158 78h550l-155 -78h-553zM180 817l156 78h162v203l61 34v-237h323l-157 -78h-166v-227l-61 -33v260h-318z" />
<glyph unicode="&#xb2;" horiz-adv-x="762" d="M-2 666q8 0 129 88q147 108 239 204q130 138 130 238q0 79 -70 141q-68 59 -148 59q-98 0 -98 -83v-9q0 -16 23 -40q7 -8 25 -21q-56 15 -112 15q-64 0 -79 -8q74 164 346 163q88 0 144 -41q63 -46 63 -131q0 -103 -115 -235q-82 -95 -213 -195q-108 -82 -116 -82h310 q62 1 126 25q18 6 51 24q-33 -44 -61 -106q-8 -20 -21 -52q-29 14 -55 23q-74 23 -158 23h-340z" />
<glyph unicode="&#xb3;" horiz-adv-x="0" d="M4 682q30 4 84 18q76 22 90 38q-2 -10 -2 -21q0 -35 27 -65q36 -40 94 -40q99 0 161 58q64 58 64 156q0 108 -75 176q-72 66 -181 65q83 20 117 35q119 52 119 139q0 76 -86 120q-70 35 -154 35q-32 0 -56 -19q-26 -20 -26 -52q0 -6 2 -12q6 -46 46 -68q-50 20 -136 29 q-20 2 -82 8q112 138 322 138q116 0 194 -34q100 -42 100 -126q0 -116 -224 -176q84 -32 126 -60q130 -82 130 -192q0 -124 -110 -189q-90 -53 -224 -53q-237 0 -320 92z" />
<glyph unicode="&#xb4;" horiz-adv-x="534" d="M49 1250l305 308l94 -40l25 -96l-403 -202z" />
<glyph unicode="&#xb5;" horiz-adv-x="893" d="M-158 -53q73 0 160 139q88 142 86 270l-8 430h254q-34 -70 -52 -120q-52 -156 -52 -310q0 -128 76 -201t204 -73q70 0 131 26q80 32 80 92v447q0 41 -43 93q-7 8 -45 46h235q-4 -4 -16 -48q0 -2 -12 -44v-575q0 -50 28 -91h-147v93q-41 -40 -103 -68q-86 -39 -182 -39 q-200 0 -284 146q0 -90 -33 -146q-45 -78 -139 -74z" />
<glyph unicode="&#xb6;" horiz-adv-x="1339" d="M20 1110q0 128 114 202q98 64 232 64q230 0 361 -149q35 74 84 98q58 29 131 25l62 -4q-68 -20 -130 -136l180 17q34 74 84 98q58 31 132 25l61 -4q-53 -20 -98 -86q-53 -78 -53 -164v-930q0 -118 36 -166h-218q35 42 34 166l-2 366h-178v-366q0 -118 37 -166h-219 q34 43 34 166v372q-84 0 -229 60q-184 76 -303 188q-152 144 -152 324zM200 1110q0 -347 370 -463q90 -29 128 -29l6 518q0 82 -102 140q-88 49 -176 49q-96 0 -160 -59q-66 -61 -66 -156zM850 602h178l-2 545l-158 -4z" />
<glyph unicode="&#xb7;" horiz-adv-x="403" d="M121 448q-1 78 75 78q33 0 55.5 -22.5t22.5 -55.5t-22 -55.5t-56 -22.5q-76 0 -75 78z" />
<glyph unicode="&#xb8;" horiz-adv-x="901" d="M366 -299q22 7 56 21q57 29 57 71q0 31 -51 97q-53 70 -53 86q2 4 2 6q4 8 12 18h170q-47 0 -47 -41q0 -24 50 -90t50 -80q0 -58 -122 -78q-34 -6 -124 -10z" />
<glyph unicode="&#xb9;" horiz-adv-x="565" d="M207 1346q43 28 67 40q70 40 90 40h2q36 0 36 -48v-584q0 -62 22 -94h-152q24 34 25 94v533q1 21 -59 21q-20 0 -31 -2z" />
<glyph unicode="&#xba;" horiz-adv-x="854" d="M119 966l23 86h562l-22 -86h-563zM172 1370q0 110 70 185t180 75q111 0 180 -75q68 -73 68 -185q0 -116 -66 -186q-67 -72 -184 -72q-110 0 -180 75q-68 73 -68 183zM258 1364q0 -83 40 -150q47 -80 124 -80q82 0 126 81q36 65 36 155t-36 154q-44 80 -126 80 q-86 0 -130 -82q-34 -64 -34 -158z" />
<glyph unicode="&#xbb;" horiz-adv-x="1034" d="M26 782l150 37q72 -158 348 -352q90 -63 96 -63q-154 -50 -264 -170q-96 -104 -128 -232l-168 -24q40 132 128 240q94 114 216 167q-114 89 -170 139q-178 160 -208 258zM375 782l149 37q34 -85 148 -191q88 -82 196 -159q92 -65 100 -65q-310 -104 -392 -402l-168 -24 q40 132 128 240q94 114 216 167q-122 95 -168 137q-176 158 -209 260z" />
<glyph unicode="&#xbc;" horiz-adv-x="1609" d="M127 -78l141 215l713 1231q80 138 80 252q0 32 -4 56q-7 22 -9 34h208l-908 -1573l-102 -215h-119zM213 1462q41 26 67 41q70 39 90 39h2q36 0 36 -47v-583q0 -62 22 -95h-152q24 35 25 95v532q1 20 -59 20q-20 0 -31 -2zM846 252q48 58 76 102q78 124 78 214 q0 56 -44 88q-54 22 -106 46q66 0 164 21q38 9 84 19q30 -6 30 -36q0 -89 -59 -233q-50 -122 -94 -182h275v295q0 29 -34 57q-16 14 -48 31q98 16 172 53q22 11 59 37q-15 -32 -19 -45q-20 -57 -20 -91v-337h188l-124 -39h-64v-162q0 -62 24 -96h-162q28 39 28 96v162h-404z " />
<glyph unicode="&#xbd;" horiz-adv-x="1646" d="M207 1346q43 28 67 40q70 40 90 40h2q36 0 36 -48v-584q0 -62 22 -94h-152q24 34 25 94v533q1 21 -59 21q-20 0 -31 -2zM232 -60l140 216l714 1230q80 138 80 252q0 30 -13 90h207l-908 -1572l-102 -216h-118zM870 -4q8 0 130 88q148 108 239 205q129 137 129 237 q0 80 -70 142q-68 60 -147 59q-99 0 -99 -84v-8q0 -16 23 -41q6 -8 25 -20q-56 14 -111 14q-61 0 -79 -8q74 164 346 164q88 0 144 -42q62 -46 62 -130q0 -102 -114 -236q-82 -96 -214 -194q-108 -82 -116 -82h311q62 0 125 24q20 7 52 24q-44 -57 -82 -157q-30 15 -56 23 q-74 22 -158 22h-340z" />
<glyph unicode="&#xbe;" horiz-adv-x="1671" d="M4 682q30 4 84 18q76 22 90 38q-2 -10 -2 -21q0 -35 27 -65q36 -40 94 -40q99 0 161 58q64 58 64 156q0 108 -75 176q-72 66 -181 65q83 20 117 35q119 52 119 139q0 76 -86 120q-70 35 -154 35q-32 0 -56 -19q-26 -20 -26 -52q0 -6 2 -12q6 -46 46 -68q-50 20 -136 29 q-20 2 -82 8q112 138 322 138q116 0 194 -34q100 -42 100 -126q0 -116 -224 -176q84 -32 126 -60q130 -82 130 -192q0 -124 -110 -189q-90 -53 -224 -53q-237 0 -320 92zM256 -78l142 215l712 1231q80 138 80 252q0 32 -4 56q-6 22 -8 34h206l-907 -1573l-102 -215h-119z M903 244q52 72 74 108q73 126 73 224q0 58 -40 92q-50 24 -102 49q80 1 237 39q29 0 29 -35q0 -89 -48 -225q-46 -130 -100 -210h262v308q0 50 -78 92q88 16 166 58q28 14 56 36q-38 -90 -38 -141v-353h181l-119 -42h-62v-168q0 -36 7 -58q5 -22 19 -42h-158q26 34 26 100 v168h-385z" />
<glyph unicode="&#xbf;" horiz-adv-x="884" d="M45 385q0 148 100 266q42 49 185 159q100 77 100 130q0 36 -51 104q-17 25 -51 62q24 -4 110 -10q72 -6 117 -6q43 0 59 6q-18 -132 -126 -240l-189 -186q-96 -124 -96 -302q0 -142 56 -237q68 -117 200 -117q125 0 202 88q74 84 74 210q1 124 -63 208q84 -27 136 -99.5 t52 -160.5q0 -122 -129 -209q-115 -77 -243 -77q-174 0 -304 110q-140 119 -139 301zM352 1374q0 48 38 82q36 33 85 33q46 0 77.5 -33.5t31.5 -79.5q0 -47 -35 -79.5t-82 -32.5q-43 0 -79 33.5t-36 76.5z" />
<glyph unicode="&#xc0;" horiz-adv-x="1409" d="M68 203q0 281 176 543q168 248 428 384l-56 126q-70 156 -256 212l277 -8q10 0 30 2q19 2 29 2q24 0 44 -14q16 -12 36 -60l432 -990q60 -138 115 -228q63 -104 139 -182h-260q-70 202 -162 391l-233 481l-713 -897q-26 102 -26 238zM137 1698l21 94l98 43l297 -309 l-21 -29zM236 318q0 -62 22 -86l532 663l-94 189q-140 -20 -290 -238q-170 -246 -170 -528z" />
<glyph unicode="&#xc1;" horiz-adv-x="1409" d="M58 213q0 284 176 544q168 247 428 383l-56 126q-70 158 -256 212l276 -8q10 0 30 2t30 2q48 0 80 -73l432 -991q118 -270 254 -410h-260q-68 198 -162 391l-234 481l-712 -896q-26 97 -26 237zM226 328q0 -62 22 -86l532 663l-94 189q-140 -20 -290 -238 q-170 -246 -170 -528zM489 1543l305 308l94 -40l25 -96l-403 -202z" />
<glyph unicode="&#xc2;" horiz-adv-x="1409" d="M58 213q0 284 176 544q168 247 428 383l-56 126q-70 158 -256 212l276 -8q10 0 30 2t30 2q48 0 80 -73l432 -991q118 -270 254 -410h-260q-68 198 -162 391l-234 481l-712 -896q-26 97 -26 237zM226 328q0 -62 22 -86l532 663l-94 189q-140 -20 -290 -238 q-170 -246 -170 -528zM250 1534l234 246h240l233 -246h-98l-254 174l-256 -174h-99z" />
<glyph unicode="&#xc3;" horiz-adv-x="1409" d="M58 213q0 284 176 544q168 247 428 383l-56 126q-70 158 -256 212l276 -8q10 0 30 2t30 2q48 0 80 -73l432 -991q118 -270 254 -410h-260q-68 198 -162 391l-234 481l-712 -896q-26 97 -26 237zM226 328q0 -62 22 -86l532 663l-94 189q-140 -20 -290 -238 q-170 -246 -170 -528zM282 1556v4q0 36 56 98q70 78 151 78q59 0 159 -39q104 -41 120 -41q50 0 92 35l46 39h2q12 0 13 -22q-1 -58 -71 -116q-68 -54 -128 -54q-48 0 -116 20q-156 47 -187 47q-39 -1 -71 -29q-10 -8 -40 -34h-8q-14 0 -18 14z" />
<glyph unicode="&#xc4;" horiz-adv-x="1409" d="M58 213q0 284 176 544q168 247 428 383l-56 126q-70 158 -256 212l276 -8q10 0 30 2t30 2q48 0 80 -73l432 -991q118 -270 254 -410h-260q-68 198 -162 391l-234 481l-712 -896q-26 97 -26 237zM226 328q0 -62 22 -86l532 663l-94 189q-140 -20 -290 -238 q-170 -246 -170 -528zM324 1642q0 43 28 70.5t70 27.5t70.5 -28.5t28.5 -71.5q-1 -96 -101 -96q-96 0 -96 98zM664 1642q0 42 29 70t71 28q96 0 96 -98t-96 -98q-100 0 -100 98z" />
<glyph unicode="&#xc5;" horiz-adv-x="1409" d="M58 213q0 284 176 544q168 247 428 383l-56 126q-70 158 -256 212l276 -8q10 0 30 2t30 2q48 0 80 -73l432 -991q118 -270 254 -410h-260q-68 198 -162 391l-234 481l-712 -896q-26 97 -26 237zM226 328q0 -62 22 -86l532 663l-94 189q-140 -20 -290 -238 q-170 -246 -170 -528zM421 1670q0 68 43.5 112t112.5 44q64 0 109.5 -46t45.5 -110q0 -67 -44 -110t-111 -43t-111.5 43.5t-44.5 109.5zM486 1673q0 -38 24 -65q24 -28 62 -28q94 0 95 90v9q0 37 -27.5 63.5t-64.5 26.5q-36 0 -62.5 -29.5t-26.5 -66.5z" />
<glyph unicode="&#xc6;" horiz-adv-x="2568" d="M58 213q0 284 176 544q168 247 428 383l-56 126q-70 158 -256 212l276 -8q10 0 30 2t30 2q48 0 80 -73l221 -506q68 310 346 460q233 125 580 125h541q-86 -72 -103 -176q-2 -12 -2 -52q-166 166 -426 165q-269 -1 -457 -109q-166 -96 -231 -254h803q178 0 311 105v-245 q-139 102 -311 102h-820q-68 -180 -67 -338q1 -285 187 -463q176 -168 428 -168q182 -1 334 77q164 82 249 234v-153q-109 -106 -285 -164q-164 -54 -328 -51l-544 10q-68 198 -162 391l-234 481l-712 -896q-26 97 -26 237zM226 328q0 -62 22 -86l532 663l-94 189 q-140 -20 -290 -238q-170 -246 -170 -528z" />
<glyph unicode="&#xc7;" horiz-adv-x="1573" d="M58 692q0 342 218 558q226 222 613 222l655 2q-54 -44 -82 -114q-20 -53 -20 -88q0 -14 2 -27q-158 166 -432 166q-384 -1 -588 -205q-186 -188 -186 -506q0 -286 172 -472q176 -190 462 -191q339 0 572 309l-4 -154q-228 -206 -532 -206l-7 -27q-1 -32 51 -90 q50 -55 50 -80q0 -58 -124 -78q-34 -6 -122 -10q28 9 55 21q57 26 57 71q0 29 -51 97q-53 70 -53 86l2 8q-317 0 -512.5 195.5t-195.5 512.5z" />
<glyph unicode="&#xc8;" horiz-adv-x="1603" d="M58 692q0 388 266 592q248 190 680 190h540q-86 -72 -102 -176q-2 -16 -2 -53q-165 166 -426 166q-268 -1 -457 -109q-165 -96 -231 -254h802q178 0 312 105v-245q-140 102 -312 102h-819q-67 -178 -67 -338q0 -284 186 -463q176 -168 428 -168q184 0 336 77 q166 82 248 234v-154q-110 -106 -286 -163q-158 -51 -326 -51q-324 0 -542 189q-228 199 -228 519zM550 1714l21 94l98 43l297 -309l-20 -29z" />
<glyph unicode="&#xc9;" horiz-adv-x="1603" d="M58 692q0 388 266 592q248 190 680 190h540q-86 -72 -102 -176q-2 -16 -2 -53q-165 166 -426 166q-268 -1 -457 -109q-165 -96 -231 -254h802q178 0 312 105v-245q-140 102 -312 102h-819q-67 -178 -67 -338q0 -284 186 -463q176 -168 428 -168q184 0 336 77 q166 82 248 234v-154q-110 -106 -286 -163q-158 -51 -326 -51q-324 0 -542 189q-228 199 -228 519zM815 1543l305 308l94 -40l25 -96l-403 -202z" />
<glyph unicode="&#xca;" horiz-adv-x="1603" d="M58 692q0 388 266 592q248 190 680 190h540q-86 -72 -102 -176q-2 -16 -2 -53q-165 166 -426 166q-268 -1 -457 -109q-165 -96 -231 -254h802q178 0 312 105v-245q-140 102 -312 102h-819q-67 -178 -67 -338q0 -284 186 -463q176 -168 428 -168q184 0 336 77 q166 82 248 234v-154q-110 -106 -286 -163q-158 -51 -326 -51q-324 0 -542 189q-228 199 -228 519zM503 1530l234 246h240l233 -246h-98l-254 174l-256 -174h-99z" />
<glyph unicode="&#xcb;" horiz-adv-x="1603" d="M58 692q0 388 266 592q248 190 680 190h540q-86 -72 -102 -176q-2 -16 -2 -53q-165 166 -426 166q-268 -1 -457 -109q-165 -96 -231 -254h802q178 0 312 105v-245q-140 102 -312 102h-819q-67 -178 -67 -338q0 -284 186 -463q176 -168 428 -168q184 0 336 77 q166 82 248 234v-154q-110 -106 -286 -163q-158 -51 -326 -51q-324 0 -542 189q-228 199 -228 519zM610 1642q0 43 28 70.5t70 27.5t70.5 -28.5t28.5 -71.5q-1 -96 -101 -96q-96 0 -96 98zM950 1642q0 42 29 70t71 28q96 0 96 -98t-96 -98q-100 0 -100 98z" />
<glyph unicode="&#xcc;" horiz-adv-x="463" d="M-152 1722l21 94l98 43l297 -309l-20 -29zM-102 1474h414v-1292q0 -114 32 -182h-236q40 68 40 182v1010q0 88 -32 141q-58 97 -218 141z" />
<glyph unicode="&#xcd;" horiz-adv-x="463" d="M-102 1474h414v-1292q0 -114 32 -182h-236q40 68 40 182v1010q0 88 -32 141q-58 97 -218 141zM61 1566l305 308l94 -40l25 -96l-403 -202z" />
<glyph unicode="&#xce;" horiz-adv-x="463" d="M-183 1538l234 246h240l233 -246h-98l-254 174l-256 -174h-99zM-102 1474h414v-1292q0 -114 32 -182h-236q40 68 40 182v1010q0 88 -32 141q-58 97 -218 141z" />
<glyph unicode="&#xcf;" horiz-adv-x="463" d="M-108 1644q0 43 28 70.5t70 27.5t70.5 -28.5t28.5 -71.5q-1 -96 -101 -96q-96 0 -96 98zM-102 1474h414v-1292q0 -114 32 -182h-236q40 68 40 182v1010q0 88 -32 141q-58 97 -218 141zM232 1644q0 42 29 70t71 28q96 0 96 -98t-96 -98q-100 0 -100 98z" />
<glyph unicode="&#xd0;" horiz-adv-x="1626" d="M-16 698l208 105h122v442q0 107 -70 175q-58 57 -134 65q60 27 118 27q138 0 218 -116q158 120 373 120q324 0 521 -214q192 -208 192 -534q0 -322 -192 -545q-232 -270 -668 -270q-226 0 -358 47v698h-330zM459 1368l16 -92v-473h385l-206 -105h-179v-628 q113 -50 237 -50q314 0 477 224q144 198 144 524q1 257 -125 458q-146 234 -389 234q-125 0 -189 -14q-91 -19 -171 -78z" />
<glyph unicode="&#xd1;" horiz-adv-x="1466" d="M-51 1474h307l1008 -1224v934q0 122 -96 217q-30 29 -99 73h250v-1527q-12 8 -299 354l-822 987v-934q0 -212 168 -354h-292q72 112 72 226v1126q-48 41 -70 57q-80 59 -127 65zM410 1556v4q0 36 56 98q70 78 151 78q59 0 159 -39q104 -41 120 -41q50 0 92 35l46 39h2 q12 0 13 -22q-1 -58 -71 -116q-68 -54 -128 -54q-48 0 -116 20q-156 47 -187 47q-39 -1 -71 -29q-10 -8 -40 -34h-8q-14 0 -18 14z" />
<glyph unicode="&#xd2;" horiz-adv-x="1745" d="M60 738q0 354 231 566q223 206 581 206q349 0 580 -210q238 -216 238 -562q0 -322 -220 -542q-232 -232 -598 -231q-353 0 -579 208q-233 215 -233 565zM256 738q0 -324 182 -523q174 -191 434 -191q258 0 432 191q184 201 185 523q0 292 -156 498q-173 226 -455 226 q-258 0 -436 -196q-186 -206 -186 -528zM460 1747l21 94l98 43l297 -309l-20 -29z" />
<glyph unicode="&#xd3;" horiz-adv-x="1745" d="M60 738q0 354 231 566q223 206 581 206q349 0 580 -210q238 -216 238 -562q0 -322 -220 -542q-232 -232 -598 -231q-353 0 -579 208q-233 215 -233 565zM256 738q0 -324 182 -523q174 -191 434 -191q258 0 432 191q184 201 185 523q0 292 -156 498q-173 226 -455 226 q-258 0 -436 -196q-186 -206 -186 -528zM770 1590l305 308l94 -40l25 -96l-403 -202z" />
<glyph unicode="&#xd4;" horiz-adv-x="1745" d="M60 738q0 354 231 566q223 206 581 206q349 0 580 -210q238 -216 238 -562q0 -322 -220 -542q-232 -232 -598 -231q-353 0 -579 208q-233 215 -233 565zM256 738q0 -324 182 -523q174 -191 434 -191q258 0 432 191q184 201 185 523q0 292 -156 498q-173 226 -455 226 q-258 0 -436 -196q-186 -206 -186 -528zM491 1556l234 246h240l233 -246h-98l-254 174l-256 -174h-99z" />
<glyph unicode="&#xd5;" horiz-adv-x="1745" d="M60 738q0 354 231 566q223 206 581 206q349 0 580 -210q238 -216 238 -562q0 -322 -220 -542q-232 -232 -598 -231q-353 0 -579 208q-233 215 -233 565zM256 738q0 -324 182 -523q174 -191 434 -191q258 0 432 191q184 201 185 523q0 292 -156 498q-173 226 -455 226 q-258 0 -436 -196q-186 -206 -186 -528zM524 1594v4q0 36 56 98q70 78 151 78q59 0 159 -39q104 -41 120 -41q50 0 92 35l46 39h2q12 0 13 -22q-1 -58 -71 -116q-68 -54 -128 -54q-48 0 -116 20q-156 47 -187 47q-39 -1 -71 -29q-10 -8 -40 -34h-8q-14 0 -18 14z" />
<glyph unicode="&#xd6;" horiz-adv-x="1745" d="M60 738q0 354 231 566q223 206 581 206q349 0 580 -210q238 -216 238 -562q0 -322 -220 -542q-232 -232 -598 -231q-353 0 -579 208q-233 215 -233 565zM256 738q0 -324 182 -523q174 -191 434 -191q258 0 432 191q184 201 185 523q0 292 -156 498q-173 226 -455 226 q-258 0 -436 -196q-186 -206 -186 -528zM580 1663q0 43 28 70.5t70 27.5t70.5 -28.5t28.5 -71.5q-1 -96 -101 -96q-96 0 -96 98zM920 1663q0 42 29 70t71 28q96 0 96 -98t-96 -98q-100 0 -100 98z" />
<glyph unicode="&#xd7;" d="M152 268l323 324l-323 324l86 86l323 -324l323 324l82 -82l-323 -324l323 -324l-86 -86l-323 324l-323 -324z" />
<glyph unicode="&#xd8;" horiz-adv-x="1745" d="M12 74l211 178q-174 228 -174 498q0 339 235 553q228 209 570 209q376 0 614 -222l216 184l50 -61l-208 -182q158 -189 158 -493q0 -358 -237 -572q-228 -206 -589 -205q-304 -1 -574 221l-214 -184zM254 735q0 -213 92 -383l1012 856q-86 108 -213 178q-139 76 -267 76 q-302 0 -470 -219q-154 -200 -154 -508zM393 276q81 -108 209 -178q134 -74 264 -74q250 0 428 187q192 203 193 527q0 224 -84 386z" />
<glyph unicode="&#xd9;" horiz-adv-x="1519" d="M58 668q0 168 84 321q14 25 186 317q0 38 -46 74q-98 76 -98 82l12 12h310q16 0 16 -10q0 -6 -4 -14q-112 -122 -188 -316q-84 -210 -84 -462q0 -270 112 -434q130 -191 386 -191q50 1 126 13q150 24 250 108q90 76 90 150v906q0 98 -78 185q-28 29 -80 65h320v-1474 h-162v166q-86 -64 -145 -96q-185 -96 -371 -96q-292 0 -468 204q-168 194 -168 490zM442 1735l21 94l98 43l297 -309l-20 -29z" />
<glyph unicode="&#xda;" horiz-adv-x="1519" d="M58 668q0 168 84 321q14 25 186 317q0 38 -46 74q-98 76 -98 82l12 12h310q16 0 16 -10q0 -6 -4 -14q-112 -122 -188 -316q-84 -210 -84 -462q0 -270 112 -434q130 -191 386 -191q50 1 126 13q150 24 250 108q90 76 90 150v906q0 98 -78 185q-28 29 -80 65h320v-1474 h-162v166q-86 -64 -145 -96q-185 -96 -371 -96q-292 0 -468 204q-168 194 -168 490zM747 1584l305 308l94 -40l25 -96l-403 -202z" />
<glyph unicode="&#xdb;" horiz-adv-x="1519" d="M58 668q0 168 84 321q14 25 186 317q0 38 -46 74q-98 76 -98 82l12 12h310q16 0 16 -10q0 -6 -4 -14q-112 -122 -188 -316q-84 -210 -84 -462q0 -270 112 -434q130 -191 386 -191q50 1 126 13q150 24 250 108q90 76 90 150v906q0 98 -78 185q-28 29 -80 65h320v-1474 h-162v166q-86 -64 -145 -96q-185 -96 -371 -96q-292 0 -468 204q-168 194 -168 490zM392 1532l234 246h240l233 -246h-98l-254 174l-256 -174h-99z" />
<glyph unicode="&#xdc;" horiz-adv-x="1519" d="M58 668q0 168 84 321q14 25 186 317q0 38 -46 74q-98 76 -98 82l12 12h310q16 0 16 -10q0 -6 -4 -14q-112 -122 -188 -316q-84 -210 -84 -462q0 -270 112 -434q130 -191 386 -191q50 1 126 13q150 24 250 108q90 76 90 150v906q0 98 -78 185q-28 29 -80 65h320v-1474 h-162v166q-86 -64 -145 -96q-185 -96 -371 -96q-292 0 -468 204q-168 194 -168 490zM508 1644q0 43 28 70.5t70 27.5t70.5 -28.5t28.5 -71.5q-1 -96 -101 -96q-96 0 -96 98zM848 1644q0 42 29 70t71 28q96 0 96 -98t-96 -98q-100 0 -100 98z" />
<glyph unicode="&#xdd;" horiz-adv-x="1519" d="M60 620q0 228 88 376l180 302q-6 42 -55 82q-9 7 -83 62q0 18 2 24q4 8 15 8h281q22 0 26 -24v-16q2 -6 0 -8q-14 -14 -53 -58q-67 -76 -119 -196q-64 -150 -86 -318q-6 -50 -8 -106l-2 -70q-8 -296 139 -475q135 -162 363 -162q182 1 336 99q126 80 126 178v906 q0 90 -49 144q-55 45 -109 90q0 16 25 16h295v-1232q0 -700 -712 -701q-299 1 -482 89q40 16 144 79q34 19 92 59q94 -166 340 -166q232 0 342 169q84 129 110 389q-156 -160 -412 -182q-12 0 -48 -2q-48 -2 -34 -2q-278 0 -462 176q-190 182 -190 470zM696 1559l305 308 l94 -40l25 -96l-403 -202z" />
<glyph unicode="&#xde;" horiz-adv-x="1202" d="M45 1300q17 12 51 13q38 -1 92 -15q9 -2 23 -8v348q0 130 -39 184h240q-12 -16 -26 -88q-12 -64 -11 -96v-442q137 137 371 137q156 -1 259 -67q121 -78 121 -226q0 -260 -257 -433q-190 -127 -494 -195v-635l12 -82q13 -85 25 -101h-240q22 18 28 78q10 98 11 105v1249 q1 102 -59 182q-42 56 -107 92zM375 504q32 -4 51 -4q177 0 332 149q170 163 170 391q0 104 -73 172q-70 66 -175 66q-98 0 -194 -54q-112 -62 -111 -153v-567z" />
<glyph unicode="&#xdf;" horiz-adv-x="1087" d="M0 1153q16 0 39 -2l121 -8q44 -3 154 67q106 68 194 68q93 0 172 -74q78 -76 78 -168q0 -108 -113 -221q-39 -38 -115 -90q42 -71 180 -145q186 -100 222 -130q108 -88 108 -216q0 -140 -112 -206q-91 -52 -236 -52q-136 0 -235 66q-113 76 -113 206q44 15 123 61 q33 19 71 45q-38 -74 -38 -110q0 -95 59 -155.5t153 -60.5q86 0 142 51.5t56 137.5q0 129 -114 209q-118 62 -224 121q-132 73 -162 172q222 110 221 268q1 80 -55 147q-58 70 -138 70q-82 0 -140 -100q-52 -87 -52 -174v-910l-127 -104v1010q0 80 -119 227z" />
<glyph unicode="&#xe0;" horiz-adv-x="942" d="M45 234q1 158 165 266q135 88 310 110l-59 117q-41 82 -133 82q-32 -1 -62 -15q14 16 74 52q96 57 96 127q40 -41 56 -61q67 -84 106 -164l373 -748h-147l-118 236q-192 -226 -378 -246q-12 -2 -33 -2q-108 0 -179 69t-71 177zM51 1235l21 94l98 43l297 -309l-20 -29z M172 291q0 -86 52 -144q54 -61 138 -61q18 2 27 2q180 23 303 178l-158 314q-130 0 -240 -78q-122 -86 -122 -211z" />
<glyph unicode="&#xe1;" horiz-adv-x="942" d="M45 234q1 158 165 266q135 88 310 110l-59 117q-41 82 -133 82q-32 -1 -62 -15q14 16 74 52q96 57 96 127q40 -41 56 -61q67 -84 106 -164l373 -748h-147l-118 236q-192 -226 -378 -246q-12 -2 -33 -2q-108 0 -179 69t-71 177zM172 291q0 -86 52 -144q54 -61 138 -61 q18 2 27 2q180 23 303 178l-158 314q-130 0 -240 -78q-122 -86 -122 -211zM401 1062l305 308l94 -40l25 -96l-403 -202z" />
<glyph unicode="&#xe2;" horiz-adv-x="942" d="M45 234q1 158 165 266q135 88 310 110l-59 117q-41 82 -133 82q-32 -1 -62 -15q14 16 74 52q96 57 96 127q40 -41 56 -61q67 -84 106 -164l373 -748h-147l-118 236q-192 -226 -378 -246q-12 -2 -33 -2q-108 0 -179 69t-71 177zM73 1024l234 246h240l233 -246h-98 l-254 174l-256 -174h-99zM172 291q0 -86 52 -144q54 -61 138 -61q18 2 27 2q180 23 303 178l-158 314q-130 0 -240 -78q-122 -86 -122 -211z" />
<glyph unicode="&#xe3;" horiz-adv-x="942" d="M45 234q1 158 165 266q135 88 310 110l-59 117q-41 82 -133 82q-32 -1 -62 -15q14 16 74 52q96 57 96 127q40 -41 56 -61q67 -84 106 -164l373 -748h-147l-118 236q-192 -226 -378 -246q-12 -2 -33 -2q-108 0 -179 69t-71 177zM119 1047v4q0 36 56 98q70 78 151 78 q59 0 159 -39q104 -41 120 -41q50 0 92 35l46 39h2q12 0 13 -22q-1 -58 -71 -116q-68 -54 -128 -54q-48 0 -116 20q-156 47 -187 47q-39 -1 -71 -29q-10 -8 -40 -34h-8q-14 0 -18 14zM172 291q0 -86 52 -144q54 -61 138 -61q18 2 27 2q180 23 303 178l-158 314 q-130 0 -240 -78q-122 -86 -122 -211z" />
<glyph unicode="&#xe4;" horiz-adv-x="942" d="M45 234q1 158 165 266q135 88 310 110l-59 117q-41 82 -133 82q-32 -1 -62 -15q14 16 74 52q96 57 96 127q40 -41 56 -61q67 -84 106 -164l373 -748h-147l-118 236q-192 -226 -378 -246q-12 -2 -33 -2q-108 0 -179 69t-71 177zM172 291q0 -86 52 -144q54 -61 138 -61 q18 2 27 2q180 23 303 178l-158 314q-130 0 -240 -78q-122 -86 -122 -211zM172 1128q0 43 28 70.5t70 27.5t70.5 -28.5t28.5 -71.5q-1 -96 -101 -96q-96 0 -96 98zM512 1128q0 42 29 70t71 28q96 0 96 -98t-96 -98q-100 0 -100 98z" />
<glyph unicode="&#xe5;" horiz-adv-x="942" d="M45 234q1 158 165 266q135 88 310 110l-59 117q-41 82 -133 82q-32 -1 -62 -15q14 16 74 52q96 57 96 127q40 -41 56 -61q67 -84 106 -164l373 -748h-147l-118 236q-192 -226 -378 -246q-12 -2 -33 -2q-108 0 -179 69t-71 177zM172 291q0 -86 52 -144q54 -61 138 -61 q18 2 27 2q180 23 303 178l-158 314q-130 0 -240 -78q-122 -86 -122 -211zM287 1164q0 68 43.5 112t112.5 44q64 0 109.5 -46t45.5 -110q0 -67 -44 -110t-111 -43t-111.5 43.5t-44.5 109.5zM352 1167q0 -38 24 -65q24 -28 62 -28q94 0 95 90v9q0 37 -27.5 63.5t-64.5 26.5 q-36 0 -62.5 -29.5t-26.5 -66.5z" />
<glyph unicode="&#xe6;" horiz-adv-x="1530" d="M45 234q1 158 165 266q135 88 310 110l-59 117q-41 82 -133 82q-32 -1 -62 -15q14 16 74 52q96 57 96 127q40 -41 56 -61q64 -80 106 -164l88 -176q42 134 156 214q104 74 221 74q123 0 217 -58q110 -68 110 -184h-562q-22 -112 -23 -184q1 -160 91 -264 q96 -108 253 -108q71 0 187 52q40 18 102 56q-80 -98 -155 -140q-83 -46 -201 -46q-28 0 -54 6q-24 3 -62 16l5 -6h-147l-118 236q-192 -226 -378 -246q-12 -2 -33 -2q-108 0 -179 69t-71 177zM172 291q0 -86 52 -144q54 -61 138 -61q18 2 27 2q180 23 303 178l-158 314 q-130 0 -240 -78q-122 -86 -122 -211zM842 660h405q-10 72 -64.5 118t-128.5 46q-98 0 -142 -58q-40 -64 -70 -106z" />
<glyph unicode="&#xe7;" horiz-adv-x="862" d="M43 446q1 172 135 291q130 113 304 113q194 0 292 -142q-72 -68 -160 -80l6 40q0 53 -33 87.5t-85 34.5q-16 2 -25 2q-125 0 -210 -108q-79 -100 -79 -230q0 -162 98 -285q106 -134 263 -134q174 0 285 168q0 -93 -118 -160q-94 -53 -200 -65l-4 -19q0 -24 50 -90.5 t50 -79.5q0 -58 -122 -78q-34 -6 -124 -10q22 7 56 21q57 29 57 71q0 31 -51 97q-53 70 -53 86l4 10q-152 35 -248 178q-88 132 -88 282z" />
<glyph unicode="&#xe8;" horiz-adv-x="846" d="M45 434q0 196 131 318q118 108 266 108q124 0 218 -58q110 -68 110 -184h-563q-23 -112 -23 -184q0 -160 91 -264q95 -108 253 -108q70 0 187 52q40 18 102 56q-81 -98 -155 -140q-84 -46 -201 -46q-167 0 -293 142q-122 138 -123 308zM90 1206l21 94l98 43l297 -309 l-20 -29zM221 660h405q-10 72 -64.5 118t-127.5 46q-98 0 -143 -58q-41 -64 -70 -106z" />
<glyph unicode="&#xe9;" horiz-adv-x="846" d="M45 434q0 196 131 318q118 108 266 108q124 0 218 -58q110 -68 110 -184h-563q-23 -112 -23 -184q0 -160 91 -264q95 -108 253 -108q70 0 187 52q40 18 102 56q-81 -98 -155 -140q-84 -46 -201 -46q-167 0 -293 142q-122 138 -123 308zM221 660h405q-10 72 -64.5 118 t-127.5 46q-98 0 -143 -58q-41 -64 -70 -106zM383 1037l305 308l94 -40l25 -96l-403 -202z" />
<glyph unicode="&#xea;" horiz-adv-x="846" d="M45 434q0 196 131 318q118 108 266 108q124 0 218 -58q110 -68 110 -184h-563q-23 -112 -23 -184q0 -160 91 -264q95 -108 253 -108q70 0 187 52q40 18 102 56q-81 -98 -155 -140q-84 -46 -201 -46q-167 0 -293 142q-122 138 -123 308zM92 981l234 246h240l233 -246h-98 l-254 174l-256 -174h-99zM221 660h405q-10 72 -64.5 118t-127.5 46q-98 0 -143 -58q-41 -64 -70 -106z" />
<glyph unicode="&#xeb;" horiz-adv-x="846" d="M45 434q0 196 131 318q118 108 266 108q124 0 218 -58q110 -68 110 -184h-563q-23 -112 -23 -184q0 -160 91 -264q95 -108 253 -108q70 0 187 52q40 18 102 56q-81 -98 -155 -140q-84 -46 -201 -46q-167 0 -293 142q-122 138 -123 308zM170 1042q0 43 28 70.5t70 27.5 t70.5 -28.5t28.5 -71.5q-1 -96 -101 -96q-96 0 -96 98zM221 660h405q-10 72 -64.5 118t-127.5 46q-98 0 -143 -58q-41 -64 -70 -106zM510 1042q0 42 29 70t71 28q96 0 96 -98t-96 -98q-100 0 -100 98z" />
<glyph unicode="&#xec;" horiz-adv-x="344" d="M-238 1176l21 94l98 43l297 -309l-20 -29zM-28 826h268v-728q0 -56 30 -98h-190q26 44 26 98v554q0 84 -67 136q-19 16 -67 38z" />
<glyph unicode="&#xed;" horiz-adv-x="344" d="M-28 826h268v-728q0 -56 30 -98h-190q26 44 26 98v554q0 84 -67 136q-19 16 -67 38zM105 1018l305 308l94 -40l25 -96l-403 -202z" />
<glyph unicode="&#xee;" horiz-adv-x="344" d="M-208 983l234 246h240l233 -246h-98l-254 174l-256 -174h-99zM-28 826h268v-728q0 -56 30 -98h-190q26 44 26 98v554q0 84 -67 136q-19 16 -67 38z" />
<glyph unicode="&#xef;" horiz-adv-x="344" d="M-172 1092q0 98 112 98q46 0 78 -27q34 -28 35 -73q1 -46 -35 -72q-32 -24 -80 -24q-110 0 -110 98zM-28 826h268v-728q0 -56 30 -98h-190q26 44 26 98v554q0 84 -67 136q-19 16 -67 38zM217 1092q0 44 36 72q33 26 79 26q110 0 110 -98t-110 -98q-46 0 -79 25 q-36 29 -36 73z" />
<glyph unicode="&#xf1;" horiz-adv-x="952" d="M-45 821q71 1 189 17q47 6 102 18v-116q56 34 98 52q120 56 196 56q140 0 232 -94q117 -122 117 -377q0 -228 -41 -377h-136q58 126 58 332q0 180 -58 296q-76 150 -237 150q-99 0 -168 -57q-61 -51 -61 -105v-518q0 -41 28 -98h-192q32 40 32 98q2 4 2 68v402 q0 24 -2 30q-12 174 -159 223zM137 986v4q0 36 56 98q70 78 151 78q59 0 159 -39q104 -41 120 -41q50 0 92 35l46 39h2q12 0 13 -22q-1 -58 -71 -116q-68 -54 -128 -54q-48 0 -116 20q-156 47 -187 47q-39 -1 -71 -29q-10 -8 -40 -34h-8q-14 0 -18 14z" />
<glyph unicode="&#xf2;" horiz-adv-x="964" d="M45 414q0 190 124.5 316t314.5 126q193 0 314.5 -124t121.5 -318q0 -203 -119 -320.5t-322 -117.5q-193 0 -313.5 122t-120.5 316zM106 1157l21 94l98 43l297 -309l-20 -29zM196 404q0 -146 69 -258q81 -132 219 -132q145 0 221 134q63 110 63 266t-63 264 q-77 133 -221 133q-146 0 -224 -137q-64 -112 -64 -270z" />
<glyph unicode="&#xf3;" horiz-adv-x="964" d="M45 414q0 190 124.5 316t314.5 126q193 0 314.5 -124t121.5 -318q0 -203 -119 -320.5t-322 -117.5q-193 0 -313.5 122t-120.5 316zM196 404q0 -146 69 -258q81 -132 219 -132q145 0 221 134q63 110 63 266t-63 264q-77 133 -221 133q-146 0 -224 -137q-64 -112 -64 -270z M430 1012l305 308l94 -40l25 -96l-403 -202z" />
<glyph unicode="&#xf4;" horiz-adv-x="964" d="M45 414q0 190 124.5 316t314.5 126q193 0 314.5 -124t121.5 -318q0 -203 -119 -320.5t-322 -117.5q-193 0 -313.5 122t-120.5 316zM122 975l234 246h240l233 -246h-98l-254 174l-256 -174h-99zM196 404q0 -146 69 -258q81 -132 219 -132q145 0 221 134q63 110 63 266 t-63 264q-77 133 -221 133q-146 0 -224 -137q-64 -112 -64 -270z" />
<glyph unicode="&#xf5;" horiz-adv-x="964" d="M45 414q0 190 124.5 316t314.5 126q193 0 314.5 -124t121.5 -318q0 -203 -119 -320.5t-322 -117.5q-193 0 -313.5 122t-120.5 316zM142 1016v4q0 36 56 98q70 78 151 78q59 0 159 -39q104 -41 120 -41q50 0 92 35l46 39h2q12 0 13 -22q-1 -58 -71 -116q-68 -54 -128 -54 q-48 0 -116 20q-156 47 -187 47q-39 -1 -71 -29q-10 -8 -40 -34h-8q-14 0 -18 14zM196 404q0 -146 69 -258q81 -132 219 -132q145 0 221 134q63 110 63 266t-63 264q-77 133 -221 133q-146 0 -224 -137q-64 -112 -64 -270z" />
<glyph unicode="&#xf6;" horiz-adv-x="964" d="M45 414q0 190 124.5 316t314.5 126q193 0 314.5 -124t121.5 -318q0 -203 -119 -320.5t-322 -117.5q-193 0 -313.5 122t-120.5 316zM196 404q0 -146 69 -258q81 -132 219 -132q145 0 221 134q63 110 63 266t-63 264q-77 133 -221 133q-146 0 -224 -137q-64 -112 -64 -270z M211 1086q0 43 28 70.5t70 27.5t70.5 -28.5t28.5 -71.5q-1 -96 -101 -96q-96 0 -96 98zM551 1086q0 42 29 70t71 28q96 0 96 -98t-96 -98q-100 0 -100 98z" />
<glyph unicode="&#xf7;" horiz-adv-x="1054" d="M90 461l207 104h669l-206 -104h-670zM424 293q0 41 26.5 67.5t67.5 26.5t67.5 -26.5t26.5 -67.5q0 -40 -27 -67.5t-67 -27.5q-41 0 -67.5 27t-26.5 68zM424 735q0 40 27 67.5t67 27.5q41 0 67.5 -27t26.5 -68q0 -96 -94 -96q-41 0 -67.5 27.5t-26.5 68.5z" />
<glyph unicode="&#xf8;" horiz-adv-x="964" d="M45 422q-1 210 151 332q124 98 260 98q14 -2 23 -2q50 -6 119 -16q16 -2 74 -29q46 60 45 143q-1 38 -5 58q-4 14 -12 40h184l-153 -268q91 -44 141 -150q46 -96 46 -206q0 -208 -113 -326q-115 -120 -321 -120q-85 0 -193 38q-76 -132 -76 -166q-8 -2 -41 -2h-51 q-19 0 -27 2q28 36 86 124q22 33 50 77q-186 122 -187 373zM196 450q0 -152 40 -252q12 -32 40 -71l361 627q-63 58 -147 57q-120 0 -201 -88q-93 -101 -93 -273zM324 74q58 -58 147 -58q126 0 207 98q92 110 92 308q0 104 -41 204q-16 38 -43 76z" />
<glyph unicode="&#xf9;" horiz-adv-x="991" d="M60 356q0 94 52 201q18 36 54 84q-6 54 -45 123q-12 22 -41 62h221q15 0 21 -19q2 -7 2 -17q-50 -98 -88 -202q-44 -118 -44 -199q0 -303 279 -329q22 -2 45 -2q74 0 144 29q90 37 90 101v488q0 100 -96 150h256q-28 -41 -28 -99v-629q0 -36 28 -98h-160v100 q-50 -37 -90 -57q-116 -59 -220 -59q-173 0 -276.5 100t-103.5 272zM151 1151l21 94l98 43l297 -309l-20 -29z" />
<glyph unicode="&#xfa;" horiz-adv-x="991" d="M60 356q0 94 52 201q18 36 54 84q-6 54 -45 123q-12 22 -41 62h221q15 0 21 -19q2 -7 2 -17q-50 -98 -88 -202q-44 -118 -44 -199q0 -303 279 -329q22 -2 45 -2q74 0 144 29q90 37 90 101v488q0 100 -96 150h256q-28 -41 -28 -99v-629q0 -36 28 -98h-160v100 q-50 -37 -90 -57q-116 -59 -220 -59q-173 0 -276.5 100t-103.5 272zM453 982l305 308l94 -40l25 -96l-403 -202z" />
<glyph unicode="&#xfb;" horiz-adv-x="991" d="M60 356q0 94 52 201q18 36 54 84q-6 54 -45 123q-12 22 -41 62h221q15 0 21 -19q2 -7 2 -17q-50 -98 -88 -202q-44 -118 -44 -199q0 -303 279 -329q22 -2 45 -2q74 0 144 29q90 37 90 101v488q0 100 -96 150h256q-28 -41 -28 -99v-629q0 -36 28 -98h-160v100 q-50 -37 -90 -57q-116 -59 -220 -59q-173 0 -276.5 100t-103.5 272zM168 975l234 246h240l233 -246h-98l-254 174l-256 -174h-99z" />
<glyph unicode="&#xfc;" horiz-adv-x="991" d="M60 356q0 94 52 201q18 36 54 84q-6 54 -45 123q-12 22 -41 62h221q15 0 21 -19q2 -7 2 -17q-50 -98 -88 -202q-44 -118 -44 -199q0 -303 279 -329q22 -2 45 -2q74 0 144 29q90 37 90 101v488q0 100 -96 150h256q-28 -41 -28 -99v-629q0 -36 28 -98h-160v100 q-50 -37 -90 -57q-116 -59 -220 -59q-173 0 -276.5 100t-103.5 272zM248 1086q0 43 28 70.5t70 27.5t70.5 -28.5t28.5 -71.5q-1 -96 -101 -96q-96 0 -96 98zM588 1086q0 42 29 70t71 28q96 0 96 -98t-96 -98q-100 0 -100 98z" />
<glyph unicode="&#xfd;" horiz-adv-x="983" d="M60 328q0 88 50 214q16 42 52 110v8q0 62 -82 166h223q11 0 17 -28q-128 -294 -128 -442q0 -316 277 -342q21 -2 25 -2h24q78 0 146 32q86 40 86 110v516q0 106 -96 156h256q-28 -45 -28 -105v-661q0 -244 -150 -424q-159 -189 -400 -189q-142 1 -213 115l133 178 q-6 -24 -6 -47q0 -72 50 -127q52 -58 122 -58q150 0 236 142q68 112 84 266q2 8 12 144q-34 -42 -66 -62q-98 -64 -242 -64q-180 0 -282 107q-100 105 -100 287zM428 994l305 308l94 -40l25 -96l-403 -202z" />
<glyph unicode="&#xfe;" horiz-adv-x="1067" d="M0 832q26 20 45 20q23 0 71 -20q0 44 -2 262l-2 292q0 6 2 174q1 78 5 82q6 0 86 -57q90 -65 129 -75q-30 -10 -56 -56q-30 -55 -30 -123v-563q40 26 106 51q96 37 176 37q207 0 325 -116t118 -322q0 -201 -120.5 -320.5t-322.5 -119.5q-126 0 -216 52q-30 18 -66 56 v-356q0 -48 21 -104q26 -68 65 -74q-38 -8 -203 -128q-15 0 -15 27v1127q0 98 -18 146q-24 62 -98 108zM248 244q0 -88 99 -162q91 -68 183 -68q144 0 223 136q64 112 64 268q1 172 -73 282q-80 118 -214 119q-89 0 -178 -51q-104 -60 -104 -142v-382z" />
<glyph unicode="&#xff;" horiz-adv-x="983" d="M60 328q0 88 50 214q16 42 52 110v8q0 62 -82 166h223q11 0 17 -28q-128 -294 -128 -442q0 -316 277 -342q21 -2 25 -2h24q78 0 146 32q86 40 86 110v516q0 106 -96 156h256q-28 -45 -28 -105v-661q0 -244 -150 -424q-159 -189 -400 -189q-142 1 -213 115l133 178 q-6 -24 -6 -47q0 -72 50 -127q52 -58 122 -58q150 0 236 142q68 112 84 266q2 8 12 144q-34 -42 -66 -62q-98 -64 -242 -64q-180 0 -282 107q-100 105 -100 287zM248 1069q0 43 28 70.5t70 27.5t70.5 -28.5t28.5 -71.5q-1 -96 -101 -96q-96 0 -96 98zM588 1069q0 42 29 70 t71 28q96 0 96 -98t-96 -98q-100 0 -100 98z" />
<glyph unicode="&#x152;" horiz-adv-x="3090" d="M60 738q0 354 231 566q223 206 581 206q236 0 422 -100q198 -105 306 -304q226 368 841 368h541q-86 -72 -102 -176q-2 -13 -2 -53q-166 166 -426 166q-268 -1 -457 -109q-165 -96 -231 -254h802q178 0 312 105v-245q-138 102 -312 102h-819q-17 -39 -29 -80 q-28 -102 -28 -192q0 -337 174 -523q163 -174 430 -174q182 -1 335 77q165 82 249 234v-154q-110 -106 -286 -163q-158 -51 -327 -51q-217 0 -391 88q-187 94 -289 272q-112 -188 -304 -286q-183 -94 -409 -93q-356 0 -580 206q-232 213 -232 567zM256 738q0 -324 182 -523 q174 -191 434 -191q258 0 432 191q184 201 185 523q0 292 -156 498q-173 226 -455 226q-258 0 -436 -196q-186 -206 -186 -528z" />
<glyph unicode="&#x153;" horiz-adv-x="1605" d="M45 414q0 190 124.5 316t314.5 126q234 0 358 -186q122 178 326 178q123 0 217 -58q110 -68 110 -184h-563q-12 -60 -12 -145v-47q0 -152 89 -256q95 -108 245 -109q70 -1 186 53q42 20 102 56q-78 -98 -154 -140q-84 -46 -202 -46q-198 0 -332 192q-119 -188 -375 -188 q-193 0 -313.5 122t-120.5 316zM196 404q0 -146 69 -258q81 -132 219 -132q145 0 221 134q63 110 63 266t-63 264q-77 133 -221 133q-146 0 -224 -137q-64 -112 -64 -270zM946 647h406q-10 72 -65 118t-128 46q-98 1 -143 -57q-41 -64 -70 -107z" />
<glyph unicode="&#x178;" horiz-adv-x="1519" d="M60 620q0 228 88 376l180 302q-6 42 -55 82q-9 7 -83 62q0 18 2 24q4 8 15 8h281q22 0 26 -24v-16q2 -6 0 -8q-14 -14 -53 -58q-67 -76 -119 -196q-64 -150 -86 -318q-6 -50 -8 -106l-2 -70q-8 -296 139 -475q135 -162 363 -162q182 1 336 99q126 80 126 178v906 q0 90 -49 144q-55 45 -109 90q0 16 25 16h295v-1232q0 -700 -712 -701q-299 1 -482 89q40 16 144 79q34 19 92 59q94 -166 340 -166q232 0 342 169q84 129 110 389q-156 -160 -412 -182q-12 0 -48 -2q-48 -2 -34 -2q-278 0 -462 176q-190 182 -190 470zM486 1640 q0 110 110 111q110 -1 110 -113q0 -48 -31.5 -78t-80.5 -30q-108 0 -108 110zM868 1640q0 50 31.5 80.5t81.5 30.5q109 -1 109 -111t-109 -110q-50 0 -81 30q-32 30 -32 80z" />
<glyph unicode="&#x2c6;" horiz-adv-x="762" d="M24 1280l234 246h240l233 -246h-98l-254 174l-256 -174h-99z" />
<glyph unicode="&#x2dc;" horiz-adv-x="641" d="M0 1356v4q0 36 56 98q70 78 151 78q59 0 159 -39q104 -41 120 -41q50 0 92 35l46 39h2q12 0 13 -22q-1 -58 -71 -116q-68 -54 -128 -54q-48 0 -116 20q-156 47 -187 47q-39 -1 -71 -29q-10 -8 -40 -34h-8q-14 0 -18 14z" />
<glyph unicode="&#x2000;" horiz-adv-x="988" />
<glyph unicode="&#x2001;" horiz-adv-x="1976" />
<glyph unicode="&#x2002;" horiz-adv-x="988" />
<glyph unicode="&#x2003;" horiz-adv-x="1976" />
<glyph unicode="&#x2004;" horiz-adv-x="658" />
<glyph unicode="&#x2005;" horiz-adv-x="494" />
<glyph unicode="&#x2006;" horiz-adv-x="329" />
<glyph unicode="&#x2007;" horiz-adv-x="329" />
<glyph unicode="&#x2008;" horiz-adv-x="247" />
<glyph unicode="&#x2009;" horiz-adv-x="395" />
<glyph unicode="&#x200a;" horiz-adv-x="109" />
<glyph unicode="&#x2010;" horiz-adv-x="696" d="M45 406l82 141h525l-82 -141h-525z" />
<glyph unicode="&#x2011;" horiz-adv-x="696" d="M45 406l82 141h525l-82 -141h-525z" />
<glyph unicode="&#x2012;" horiz-adv-x="696" d="M45 406l82 141h525l-82 -141h-525z" />
<glyph unicode="&#x2013;" horiz-adv-x="854" d="M16 542l31 146h768l-31 -146h-768z" />
<glyph unicode="&#x2014;" horiz-adv-x="1249" d="M37 542l31 146h1161l-31 -146h-1161z" />
<glyph unicode="&#x2018;" horiz-adv-x="332" d="M43 1138q-1 78 53 172q63 110 156 156q-66 -54 -66 -128q0 -42 30 -110q36 -80 42 -108q2 -10 2 -16q0 -32 -22 -60q-29 -34 -72 -34q-56 0 -90 37q-34 35 -33 91z" />
<glyph unicode="&#x2019;" horiz-adv-x="332" d="M56 1411q0 39 27 67t67 28q56 0 89 -37t33 -93q0 -79 -53 -172q-63 -110 -155 -156q66 54 65 130q0 43 -30 110q-35 80 -41 106q-2 10 -2 17z" />
<glyph unicode="&#x201a;" horiz-adv-x="332" d="M51 125q0 39 27.5 66.5t67.5 27.5q56 0 89 -36.5t33 -92.5q0 -78 -53 -172q-63 -110 -155 -156q66 54 65 130q1 43 -29 109q-36 81 -43 107q-2 8 -2 17z" />
<glyph unicode="&#x201c;" horiz-adv-x="602" d="M43 1159q-1 78 53 172q63 111 156 156q-66 -54 -66 -129q0 -42 30 -110q36 -81 42 -108q2 -10 2 -16q0 -32 -22 -59q-29 -35 -72 -35q-56 0 -90 38q-34 36 -33 91zM334 1159q0 79 53 172q63 110 155 156q-66 -54 -65 -129q0 -42 33 -115q31 -71 39 -103q2 -8 2 -16 q-1 -32 -23 -59q-30 -35 -72 -35q-54 0 -88 38q-34 36 -34 91z" />
<glyph unicode="&#x201d;" horiz-adv-x="602" d="M64 1403q0 40 27 67t67 27q56 0 89 -36.5t33 -92.5q0 -79 -52 -172q-62 -110 -156 -156q66 54 65 130q1 44 -29 110q-36 80 -42 106q-2 9 -2 17zM354 1403q0 40 28 67q26 27 66 27q56 0 90 -36.5t34 -92.5q0 -78 -54 -172q-64 -110 -156 -156q66 54 66 130q0 44 -30 110 q-36 80 -42 106q-2 9 -2 17z" />
<glyph unicode="&#x201e;" horiz-adv-x="588" d="M51 127q0 39 27.5 66.5t67.5 27.5q56 0 89 -36.5t33 -92.5q0 -78 -53 -172q-63 -110 -155 -156q66 54 65 130q1 44 -29 110q-36 82 -43 106q-2 8 -2 17zM338 129q0 39 27.5 66.5t66.5 27.5q56 0 89.5 -36.5t33.5 -92.5q0 -78 -53 -172q-62 -110 -156 -156q66 54 66 130 q0 43 -30 110q-36 80 -42 106q-2 10 -2 17z" />
<glyph unicode="&#x2022;" horiz-adv-x="671" d="M43 641q0 134 82.5 215.5t216.5 81.5t215.5 -81.5t81.5 -215.5q0 -132 -82.5 -215.5t-214.5 -83.5q-130 0 -214.5 85t-84.5 214zM58 643q0 -104 64 -178q68 -78 169 -78q79 1 137 49q62 52 62 129q0 35 -23 62t-57 27q-54 0 -54 -58q0 -22 19 -39q13 -12 29 -12q8 0 18 2 q0 -52 -58 -86q-46 -27 -80 -27q-92 0 -152 78q-56 72 -56 168q0 56 14 108q-32 -66 -32 -145zM121 698q0 -64 30 -114q36 -60 95 -60q78 0 78 66q0 22 -15 41q-17 16 -39 16q-29 -1 -49 -39q-51 38 -51 104q0 77 70 126q62 42 143 42q77 0 151 -46q28 -18 58 -50 q-72 134 -236 134q-96 0 -164 -61q-70 -63 -71 -159zM276 729q0 -20 17 -37q14 -18 43 -18q55 0 55 47q0 21 -2 25q-8 8 -12 16q8 4 12 4q16 4 33 4q143 0 143 -166q0 -178 -231 -248q106 0 186 70q88 76 88 190q0 93 -59 153.5t-151 60.5q-122 0 -122 -101z" />
<glyph unicode="&#x2026;" horiz-adv-x="1450" d="M60 92q0 48 32 81.5t80 33.5q50 0 82 -32.5t32 -82.5q0 -49 -31.5 -80.5t-80.5 -31.5q-48 0 -81 32t-33 80zM606 98q0 48 32.5 81.5t80.5 33.5q50 0 82.5 -32.5t32.5 -82.5q0 -49 -32 -80.5t-81 -31.5q-48 0 -81 32q-34 32 -34 80zM1128 98q0 48 33 81.5t80 33.5 q49 0 82 -33t33 -82t-32 -80.5t-81 -31.5q-48 0 -81 32q-34 32 -34 80z" />
<glyph unicode="&#x202f;" horiz-adv-x="395" />
<glyph unicode="&#x2039;" horiz-adv-x="684" d="M45 418q145 48 248 151q105 106 145 250l168 25q-39 -132 -129 -241q-95 -116 -215 -167q100 -75 162 -131q173 -157 215 -266l-149 -37q-50 118 -252 278q-72 57 -193 138z" />
<glyph unicode="&#x203a;" horiz-adv-x="684" d="M45 807l149 37q60 -128 258 -285q58 -46 187 -133q-141 -48 -245 -152q-109 -108 -148 -248l-166 -24q39 130 130 240q95 116 214 168q-103 78 -162 130q-172 157 -217 267z" />
<glyph unicode="&#x205f;" horiz-adv-x="494" />
<glyph unicode="&#x2122;" horiz-adv-x="2203" d="M26 1454q24 38 32 52q34 64 40 100q22 -20 42 -29q57 -31 126 -31h625q-55 -34 -72 -114q-49 78 -161 78h-111q-87 0 -181 -120q-106 -134 -106 -286q0 -118 68 -192q70 -76 186 -76q211 0 305 145v-78q-120 -102 -307 -102q-154 0 -244 70q-102 79 -102 227 q0 150 137 294q43 46 139 118h-239q-79 0 -135 -27q-20 -9 -42 -29zM854 1194q0 170 126 266q114 86 290 86q112 0 180 -36q44 -22 78 -86q116 120 264 120q156 0 253 -103q95 -101 95 -257q0 -178 -131 -291q-111 -97 -235 -97q-90 0 -144 68q68 -44 146 -43 q126 -1 207 119q73 106 73 238t-75 230q-81 110 -209 110q-93 0 -156 -52q-68 -54 -68 -145v-512h-82v479q0 95 -52 166q-56 78 -148 78q-115 0 -209 -88q-105 -98 -105 -244q0 -176 98 -278q86 -90 208 -90q58 0 102 32q-43 -62 -127 -61q-132 0 -242 90q-137 112 -137 301 z" />
<glyph unicode="&#x25fc;" horiz-adv-x="852" d="M0 0v852h852v-852h-852z" />
</font>
</defs>
</svg>
